SplineFontDB: 3.0
FontName: Comme-ExtraLight
FullName: Comme ExtraLight
FamilyName: Comme
Weight: ExtraLight
Copyright: Digitized data Copyright (c) 2011-2014, vernon adams.
Version: 1.2
ItalicAngle: 0
UnderlinePosition: 0
UnderlineWidth: 0
Ascent: 727
Descent: 273
UFOAscent: 761.719
UFODescent: -271.484
LayerCount: 2
Layer: 0 0 "Back"  1
Layer: 1 0 "Fore"  0
FSType: 0
OS2Version: 0
OS2_WeightWidthSlopeOnly: 0
OS2_UseTypoMetrics: 1
CreationTime: 1397229782
ModificationTime: 1397229848
PfmFamily: 17
TTFWeight: 200
TTFWidth: 5
LineGap: 0
VLineGap: 0
OS2TypoAscent: 1087
OS2TypoAOffset: 0
OS2TypoDescent: -234
OS2TypoDOffset: 0
OS2TypoLinegap: 0
OS2WinAscent: 1087
OS2WinAOffset: 0
OS2WinDescent: 234
OS2WinDOffset: 0
HheadAscent: 1087
HheadAOffset: 0
HheadDescent: -234
HheadDOffset: 0
OS2Vendor: 'NeWT'
Lookup: 4 0 1 "ligaStandardLigatureslookup0"  {"ligaStandardLigatureslookup0 subtable"  } ['liga' ('latn' <'dflt' > 'grek' <'dflt' > 'DFLT' <'dflt' > ) ]
Lookup: 4 0 0 "fracDiagonalFractionslookup11"  {"fracDiagonalFractionslookup11 subtable"  } ['frac' ('latn' <'dflt' 'CAT ' 'MOL ' 'ROM ' 'TRK ' > 'grek' <'dflt' > 'DFLT' <'dflt' > ) ]
Lookup: 6 0 0 "ordnOrdinalslookup12"  {"ordnOrdinalslookup12 contextual 0"  "ordnOrdinalslookup12 contextual 1"  } ['ordn' ('latn' <'dflt' 'CAT ' 'MOL ' 'ROM ' 'TRK ' > 'grek' <'dflt' > 'DFLT' <'dflt' > ) ]
Lookup: 1 0 0 "Single Substitution lookup 3"  {"Single Substitution lookup 3 subtable"  } []
Lookup: 1 0 0 "Single Substitution lookup 4"  {"Single Substitution lookup 4 subtable"  } []
Lookup: 4 0 0 "dligDiscretionaryLigatureslooku"  {"dligDiscretionaryLigatureslooku subtable"  } ['dlig' ('latn' <'dflt' 'CAT ' 'MOL ' 'ROM ' 'TRK ' > 'grek' <'dflt' > 'DFLT' <'dflt' > ) ]
MarkAttachClasses: 1
DEI: 91125
ChainSub2: coverage "ordnOrdinalslookup12 contextual 1"  0 0 0 1
 1 1 0
  Coverage: 3 O o
  BCoverage: 49 zero one two three four five six seven eight nine
 1
  SeqLookup: 0 "Single Substitution lookup 4" 
EndFPST

StartChar: A
Encoding: 33 65 0
Width: 645
VWidth: 0
GlyphClass: 2
Flags: HW
PickledData: "(dp1
S'org.pippin.gimp.org.kernagic'
p2
(dp3
S'lstem'
p4
I0
sS'rstem'
p5
I0
ssS'com.typemytype.robofont.layerData'
p6
(dp7
sS'org.robofab.postScriptHintData'
p8
(dp9
s."
AnchorPoint: "top" 322 710 basechar 0
LayerCount: 2
Fore
SplineSet
298 710 m 257
 27 0 l 257
 85 0 l 257
 177 241 l 257
 473 241 l 257
 563 0 l 257
 619 0 l 257
 347 710 l 257
 298 710 l 257
193 285 m 257
 322 643 l 257
 457 285 l 257
 193 285 l 257
EndSplineSet
Substitution2: "Single Substitution lookup 3 subtable" ordfeminine
EndChar

StartChar: AE
Encoding: 133 198 1
Width: 882
VWidth: 0
GlyphClass: 2
Flags: HW
PickledData: "(dp1
S'org.pippin.gimp.org.kernagic'
p2
(dp3
S'lstem'
p4
I0
sS'rstem'
p5
I0
ssS'com.typemytype.robofont.layerData'
p6
(dp7
sS'org.robofab.postScriptHintData'
p8
(dp9
s."
LayerCount: 2
Fore
SplineSet
466 287 m 257
 240 287 l 257
 466 657 l 257
 466 287 l 257
441 710 m 257
 -0 0 l 257
 63 0 l 257
 214 243 l 257
 466 243 l 257
 466 0 l 257
 856 0 l 257
 860 46 l 257
 522 46 l 257
 522 344 l 257
 819 344 l 257
 819 391 l 257
 522 391 l 257
 522 664 l 257
 856 664 l 257
 858 710 l 257
 441 710 l 257
EndSplineSet
EndChar

StartChar: B
Encoding: 34 66 13
Width: 666
VWidth: 0
GlyphClass: 2
Flags: HW
PickledData: "(dp1
S'org.pippin.gimp.org.kernagic'
p2
(dp3
S'lstem'
p4
I0
sS'rstem'
p5
I0
ssS'com.typemytype.robofont.layerData'
p6
(dp7
sS'org.robofab.postScriptHintData'
p8
(dp9
s."
AnchorPoint: "top" 329 711 basechar 0
LayerCount: 2
Fore
SplineSet
275 -6 m 256
 536 -6 605 61 605 201 c 256
 605 293 555 354 449 377 c 257
 552 408 576 465 576 538 c 256
 576 636 539 716 281 716 c 256
 231 716 173 712 105 706 c 257
 105 1 l 257
 169 -4 226 -6 275 -6 c 256
165 665 m 257
 212 668 254 669 290 669 c 256
 473 669 522 633 522 534 c 256
 522 422 444 401 345 401 c 258
 165 401 l 257
 165 665 l 257
165 355 m 257
 317 355 l 258
 473 355 546 315 546 198 c 256
 546 94 516 41 291 41 c 256
 255 41 212 43 165 45 c 257
 165 355 l 257
EndSplineSet
EndChar

StartChar: C
Encoding: 35 67 14
Width: 660
VWidth: 0
GlyphClass: 2
Flags: HW
PickledData: "(dp1
S'org.pippin.gimp.org.kernagic'
p2
(dp3
S'lstem'
p4
I0
sS'rstem'
p5
I0
ssS'com.typemytype.robofont.layerData'
p6
(dp7
sS'org.robofab.postScriptHintData'
p8
(dp9
s."
AnchorPoint: "top" 391 710 basechar 0
LayerCount: 2
Fore
SplineSet
629 557 m 257
 594 665 493 721 388 721 c 256
 198 721 74 583 74 355 c 256
 74 127 198 -10 389 -10 c 256
 493 -10 596 48 630 155 c 257
 589 170 l 257
 583 170 l 257
 555 89 477 38 390 38 c 256
 233 38 133 154 133 355 c 256
 133 556 233 673 390 673 c 256
 478 673 555 622 583 541 c 257
 589 541 l 257
 629 557 l 257
EndSplineSet
EndChar

StartChar: D
Encoding: 36 68 21
Width: 739
VWidth: 0
GlyphClass: 2
Flags: HW
PickledData: "(dp1
S'org.pippin.gimp.org.kernagic'
p2
(dp3
S'lstem'
p4
I0
sS'rstem'
p5
I0
ssS'com.fontlab.hintData'
p6
(dp7
S'vhints'
p8
((dp9
S'position'
p10
I1280
sS'width'
p11
I122
stp12
sS'hhints'
p13
((dp14
g10
I0
sg11
I94
s(dp15
g10
I1355
sg11
I94
stp16
ssS'com.typemytype.robofont.layerData'
p17
(dp18
sS'org.robofab.postScriptHintData'
p19
(dp20
s."
HStem: 0 46 662 46
VStem: 625 60
AnchorPoint: "top" 367 710 basechar 0
LayerCount: 2
Fore
SplineSet
105 2 m 257
 156 -2 204 -5 246 -5 c 256
 568 -5 666 123 666 359 c 256
 666 591 584 715 272 715 c 256
 223 715 167 712 105 706 c 257
 105 2 l 257
165 42 m 257
 165 665 l 257
 203 668 239 669 271 669 c 256
 535 669 606 569 606 356 c 256
 606 153 533 39 262 39 c 256
 232 39 200 39 165 42 c 257
EndSplineSet
EndChar

StartChar: uni0394
Encoding: 413 916 24
Width: 659
VWidth: 0
Flags: HW
PickledData: "(dp1
S'org.pippin.gimp.org.kernagic'
p2
(dp3
S'lstem'
p4
I0
sS'rstem'
p5
I0
ssS'com.typemytype.robofont.layerData'
p6
(dp7
S'b'
(dp8
S'name'
p9
S'Delta'
p10
sS'lib'
p11
(dp12
sS'unicodes'
p13
(tsS'width'
p14
I1334
sS'contours'
p15
(tsS'components'
p16
(tsS'anchors'
p17
(tsssS'org.robofab.postScriptHintData'
p18
(dp19
s."
LayerCount: 2
Fore
SplineSet
117 54 m 257
 319 671 l 257
 531 54 l 257
 117 54 l 257
46 0 m 257
 602 0 l 257
 350 729 l 257
 292 729 l 257
 46 0 l 257
EndSplineSet
EndChar

StartChar: E
Encoding: 37 69 25
Width: 583
VWidth: 0
GlyphClass: 2
Flags: HW
PickledData: "(dp1
S'org.pippin.gimp.org.kernagic'
p2
(dp3
S'lstem'
p4
I0
sS'rstem'
p5
I0
ssS'com.typemytype.robofont.layerData'
p6
(dp7
sS'org.robofab.postScriptHintData'
p8
(dp9
s."
AnchorPoint: "top" 336 710 basechar 0
LayerCount: 2
Fore
SplineSet
105 710 m 257
 105 0 l 257
 538 0 l 257
 542 46 l 257
 165 46 l 257
 165 342 l 257
 500 342 l 257
 500 389 l 257
 165 389 l 257
 165 664 l 257
 538 664 l 257
 540 710 l 257
 105 710 l 257
EndSplineSet
EndChar

StartChar: Eng
Encoding: 265 330 34
Width: 746
VWidth: 0
GlyphClass: 2
Flags: HW
PickledData: "(dp1
S'org.robofab.postScriptHintData'
p2
(dp3
s."
LayerCount: 2
Fore
SplineSet
592 349 m 257
 592 -8 l 258
 592 -123 557 -162 374 -162 c 257
 377 -208 l 257
 588 -208 642 -148 642 -15 c 258
 642 349 l 257
 592 349 l 257
EndSplineSet
Refer: 70 78 N 1 0 0 1 0 0 2
EndChar

StartChar: Euro
Encoding: 461 8364 37
Width: 660
VWidth: 0
GlyphClass: 2
Flags: HW
PickledData: "(dp1
S'org.pippin.gimp.org.kernagic'
p2
(dp3
S'lstem'
p4
I0
sS'rstem'
p5
I0
ssS'com.typemytype.robofont.layerData'
p6
(dp7
S'b'
(dp8
S'name'
p9
S'Euro'
p10
sS'lib'
p11
(dp12
sS'unicodes'
p13
(tsS'width'
p14
I1391
sS'contours'
p15
(tsS'components'
p16
(tsS'anchors'
p17
(tsssS'org.robofab.postScriptHintData'
p18
(dp19
s."
LayerCount: 2
Fore
SplineSet
-7 264 m 257
 430 264 l 257
 436 310 l 257
 105 310 l 257
 105 408 l 257
 436 408 l 257
 441 453 l 257
 2 453 l 257
 -3 408 l 257
 75 408 l 257
 75 310 l 257
 -2 310 l 257
 -7 264 l 257
EndSplineSet
Refer: 14 67 N 1 0 0 1 -15 0 2
EndChar

StartChar: F
Encoding: 38 70 38
Width: 541
VWidth: 0
GlyphClass: 2
Flags: HW
PickledData: "(dp1
S'org.pippin.gimp.org.kernagic'
p2
(dp3
S'lstem'
p4
I0
sS'rstem'
p5
I705
ssS'com.typemytype.robofont.layerData'
p6
(dp7
sS'org.robofab.postScriptHintData'
p8
(dp9
s."
AnchorPoint: "top" 297 710 basechar 0
LayerCount: 2
Fore
SplineSet
105 710 m 257
 105 0 l 257
 167 0 l 257
 167 335 l 257
 479 335 l 257
 479 379 l 257
 167 379 l 257
 167 664 l 257
 510 664 l 257
 514 710 l 257
 105 710 l 257
EndSplineSet
EndChar

StartChar: G
Encoding: 39 71 39
Width: 722
VWidth: 0
GlyphClass: 2
Flags: HW
PickledData: "(dp1
S'org.pippin.gimp.org.kernagic'
p2
(dp3
S'lstem'
p4
I0
sS'rstem'
p5
I0
ssS'com.typemytype.robofont.layerData'
p6
(dp7
sS'org.robofab.postScriptHintData'
p8
(dp9
s."
AnchorPoint: "top" 407 710 basechar 0
LayerCount: 2
Fore
SplineSet
411 -9 m 256
 507 -9 576 6 646 32 c 257
 646 359 l 257
 428 359 l 257
 422 311 l 257
 589 307 l 257
 589 62 l 257
 550 51 488 39 422 39 c 256
 225 39 133 165 133 355 c 256
 133 555 255 671 420 671 c 256
 495 671 561 645 611 610 c 257
 617 610 l 257
 640 650 l 257
 580 693 501 720 418 720 c 256
 218 720 73 580 73 355 c 256
 73 149 185 -9 411 -9 c 256
EndSplineSet
EndChar

StartChar: H
Encoding: 40 72 45
Width: 735
VWidth: 0
GlyphClass: 2
Flags: HW
PickledData: "(dp1
S'org.pippin.gimp.org.kernagic'
p2
(dp3
S'lstem'
p4
I0
sS'rstem'
p5
I0
ssS'com.typemytype.robofont.layerData'
p6
(dp7
sS'org.robofab.postScriptHintData'
p8
(dp9
s."
AnchorPoint: "top" 371 710 basechar 0
LayerCount: 2
Fore
SplineSet
571 343 m 257
 571 0 l 257
 630 0 l 257
 630 710 l 257
 571 710 l 257
 571 388 l 257
 165 388 l 257
 165 710 l 257
 105 710 l 257
 105 0 l 257
 165 0 l 257
 165 343 l 257
 571 343 l 257
EndSplineSet
EndChar

StartChar: Hbar
Encoding: 229 294 46
Width: 724
VWidth: 0
GlyphClass: 2
Flags: HW
PickledData: "(dp1
S'org.pippin.gimp.org.kernagic'
p2
(dp3
S'lstem'
p4
I0
sS'rstem'
p5
I0
ssS'com.typemytype.robofont.layerData'
p6
(dp7
sS'org.robofab.postScriptHintData'
p8
(dp9
s."
LayerCount: 2
Fore
SplineSet
44 583 m 257
 44 544 l 257
 677 544 l 257
 677 583 l 257
 44 583 l 257
EndSplineSet
Refer: 45 72 N 1 0 0 1 0 0 2
EndChar

StartChar: I
Encoding: 41 73 48
Width: 403
VWidth: 0
GlyphClass: 2
Flags: HW
PickledData: "(dp1
S'org.pippin.gimp.org.kernagic'
p2
(dp3
S'lstem'
p4
I0
sS'rstem'
p5
I0
ssS'com.fontlab.hintData'
p6
(dp7
S'vhints'
p8
((dp9
S'position'
p10
I111
sS'width'
p11
I529
stp12
sS'hhints'
p13
((dp14
g10
I0
sg11
I86
s(dp15
g10
I1363
sg11
I86
stp16
ssS'com.typemytype.robofont.layerData'
p17
(dp18
sS'org.robofab.postScriptHintData'
p19
(dp20
s."
HStem: 0 42 666 42
VStem: 54 258
AnchorPoint: "top" 201 710 basechar 0
LayerCount: 2
Fore
SplineSet
72 710 m 257
 72 673 l 257
 171 673 l 257
 171 38 l 257
 72 38 l 257
 72 0 l 257
 330 0 l 257
 330 38 l 257
 231 38 l 257
 231 673 l 257
 330 673 l 257
 330 710 l 257
 72 710 l 257
EndSplineSet
EndChar

StartChar: J
Encoding: 42 74 59
Width: 350
VWidth: 0
GlyphClass: 2
Flags: HW
PickledData: "(dp1
S'org.pippin.gimp.org.kernagic'
p2
(dp3
S'lstem'
p4
I132
sS'rstem'
p5
I0
ssS'com.typemytype.robofont.layerData'
p6
(dp7
sS'org.robofab.postScriptHintData'
p8
(dp9
s."
AnchorPoint: "top" 210 710 basechar 0
LayerCount: 2
Fore
SplineSet
179 710 m 257
 179 20 l 258
 179 -74 163 -86 90 -116 c 258
 49 -133 l 257
 68 -180 l 257
 100 -168 l 257
 211 -126 238 -101 238 31 c 258
 238 710 l 257
 179 710 l 257
EndSplineSet
EndChar

StartChar: K
Encoding: 43 75 61
Width: 617
VWidth: 0
GlyphClass: 2
Flags: HW
PickledData: "(dp1
S'org.pippin.gimp.org.kernagic'
p2
(dp3
S'lstem'
p4
I0
sS'rstem'
p5
I851
ssS'com.typemytype.robofont.layerData'
p6
(dp7
sS'org.robofab.postScriptHintData'
p8
(dp9
s."
AnchorPoint: "top" 314 710 basechar 0
LayerCount: 2
Fore
SplineSet
581 711 m 257
 515 711 l 257
 165 357 l 257
 165 711 l 257
 105 711 l 257
 105 0 l 257
 165 0 l 257
 165 301 l 257
 234 370 l 257
 533 0 l 257
 600 0 l 257
 600 6 l 257
 280 401 l 257
 581 705 l 257
 581 711 l 257
EndSplineSet
EndChar

StartChar: L
Encoding: 44 76 63
Width: 529
VWidth: 0
GlyphClass: 2
Flags: HW
PickledData: "(dp1
S'org.pippin.gimp.org.kernagic'
p2
(dp3
S'lstem'
p4
I0
sS'rstem'
p5
I597
ssS'com.typemytype.robofont.layerData'
p6
(dp7
sS'org.robofab.postScriptHintData'
p8
(dp9
s."
AnchorPoint: "top" 246 710 basechar 0
LayerCount: 2
Fore
SplineSet
105 710 m 257
 105 0 l 257
 510 0 l 257
 509 46 l 257
 165 46 l 257
 165 710 l 257
 105 710 l 257
EndSplineSet
EndChar

StartChar: M
Encoding: 45 77 69
Width: 869
VWidth: 0
GlyphClass: 2
Flags: HW
PickledData: "(dp1
S'org.pippin.gimp.org.kernagic'
p2
(dp3
S'lstem'
p4
I0
sS'rstem'
p5
I0
ssS'com.typemytype.robofont.layerData'
p6
(dp7
sS'com.typemytype.robofont.guides'
p8
((dp9
S'y'
I378
sS'x'
I548
sS'magnetic'
p10
I5
sS'angle'
p11
I0
sS'isGlobal'
p12
I00
stp13
sS'com.fontlab.hintData'
p14
(dp15
S'vhints'
p16
((dp17
S'position'
p18
I185
sS'width'
p19
I166
s(dp20
g18
I214
sg19
I151
s(dp21
g18
I332
sg19
I33
s(dp22
g18
I1463
sg19
I149
s(dp23
g18
I1463
sg19
I39
s(dp24
g18
I1477
sg19
I164
stp25
ssS'org.robofab.postScriptHintData'
p26
(dp27
s."
VStem: 90 81 104 74 162 16 714 73 714 19 721 80
AnchorPoint: "top" 438 710 basechar 0
LayerCount: 2
Fore
SplineSet
97 0 m 257
 152 0 l 257
 152 263 l 257
 157 644 l 257
 409 72 l 257
 461 72 l 257
 713 640 l 257
 718 264 l 257
 718 0 l 257
 773 0 l 257
 773 263 l 257
 763 710 l 257
 688 710 l 257
 436 137 l 257
 184 710 l 257
 106 710 l 257
 97 263 l 257
 97 0 l 257
EndSplineSet
EndChar

StartChar: N
Encoding: 46 78 70
Width: 747
VWidth: 0
GlyphClass: 2
Flags: HW
PickledData: "(dp1
S'org.pippin.gimp.org.kernagic'
p2
(dp3
S'lstem'
p4
I0
sS'rstem'
p5
I0
ssS'com.typemytype.robofont.layerData'
p6
(dp7
sS'org.robofab.postScriptHintData'
p8
(dp9
s."
AnchorPoint: "top" 381 710 basechar 0
LayerCount: 2
Fore
SplineSet
592 710 m 257
 592 263 l 257
 595 75 l 257
 161 710 l 257
 105 710 l 257
 105 0 l 257
 157 0 l 257
 157 441 l 257
 151 635 l 257
 585 0 l 257
 642 0 l 257
 642 710 l 257
 592 710 l 257
EndSplineSet
EndChar

StartChar: O
Encoding: 47 79 76
Width: 797
VWidth: 0
GlyphClass: 2
Flags: HW
PickledData: "(dp1
S'org.pippin.gimp.org.kernagic'
p2
(dp3
S'lstem'
p4
I0
sS'rstem'
p5
I0
ssS'com.typemytype.robofont.layerData'
p6
(dp7
sS'com.typemytype.robofont.guides'
p8
(tsS'com.fontlab.hintData'
p9
(dp10
S'vhints'
p11
((dp12
S'position'
p13
I150
sS'width'
p14
I122
s(dp15
g13
I1390
sg14
I122
stp16
sS'hhints'
p17
((dp18
g13
I-19
sg14
I96
s(dp19
g13
I1372
sg14
I96
stp20
ssS'org.robofab.postScriptHintData'
p21
(dp22
s."
HStem: -9 47 670 47
VStem: 73 60 679 60
AnchorPoint: "top" 400 710 basechar 0
LayerCount: 2
Fore
SplineSet
664 350 m 256
 664 167 593 38 399 38 c 256
 205 38 134 167 134 350 c 256
 134 543 213 673 401 673 c 256
 589 673 664 541 664 350 c 256
74 350 m 256
 74 135 175 -9 401 -9 c 256
 623 -9 724 139 724 348 c 256
 724 569 614 720 401 720 c 256
 181 720 74 572 74 350 c 256
EndSplineSet
Substitution2: "Single Substitution lookup 4 subtable" ordmasculine
EndChar

StartChar: OE
Encoding: 273 338 77
Width: 1273
VWidth: 0
GlyphClass: 2
Flags: HW
PickledData: "(dp1
S'org.pippin.gimp.org.kernagic'
p2
(dp3
S'lstem'
p4
I0
sS'rstem'
p5
I0
ssS'com.typemytype.robofont.layerData'
p6
(dp7
S'b'
(dp8
S'name'
p9
S'OE'
p10
sS'lib'
p11
(dp12
sS'unicodes'
p13
(tsS'width'
p14
I2367
sS'contours'
p15
(tsS'components'
p16
(tsS'anchors'
p17
(tsssS'org.robofab.postScriptHintData'
p18
(dp19
s."
LayerCount: 2
Fore
SplineSet
662 350 m 256
 662 167 591 38 397 38 c 256
 203 38 131 167 131 350 c 256
 131 543 211 673 398 673 c 256
 586 673 662 541 662 350 c 256
72 350 m 256
 72 135 172 -9 398 -9 c 256
 525 -9 614 43 662 127 c 257
 662 0 l 257
 1094 0 l 257
 1099 46 l 257
 722 46 l 257
 722 342 l 257
 1057 342 l 257
 1057 389 l 257
 722 389 l 257
 722 664 l 257
 1094 664 l 257
 1096 710 l 257
 662 710 l 257
 662 576 l 257
 612 666 522 720 398 720 c 256
 178 720 72 572 72 350 c 256
EndSplineSet
EndChar

StartChar: Oslash
Encoding: 151 216 85
Width: 808
VWidth: 0
GlyphClass: 2
Flags: HW
PickledData: "(dp1
S'org.pippin.gimp.org.kernagic'
p2
(dp3
S'lstem'
p4
I0
sS'rstem'
p5
I0
ssS'com.typemytype.robofont.layerData'
p6
(dp7
sS'org.robofab.postScriptHintData'
p8
(dp9
s."
AnchorPoint: "top" 401 711 basechar 0
LayerCount: 2
Fore
SplineSet
399 38 m 256
 363 38 333 42 305 51 c 257
 537 640 l 257
 626 590 664 485 664 350 c 256
 664 167 593 38 399 38 c 256
271 63 m 257
 173 109 134 216 134 350 c 256
 134 543 213 673 401 673 c 256
 439 673 473 667 502 657 c 257
 271 63 l 257
241 -112 m 257
 287 5 l 257
 321 -5 359 -9 401 -9 c 256
 623 -9 724 139 724 348 c 256
 724 507 667 631 555 687 c 257
 602 805 l 257
 565 818 l 257
 520 702 l 257
 485 714 445 720 401 720 c 256
 181 720 74 572 74 350 c 256
 74 190 130 68 252 17 c 257
 207 -100 l 257
 241 -112 l 257
EndSplineSet
EndChar

StartChar: P
Encoding: 48 80 88
Width: 603
VWidth: 0
GlyphClass: 2
Flags: HW
PickledData: "(dp1
S'org.pippin.gimp.org.kernagic'
p2
(dp3
S'lstem'
p4
I0
sS'rstem'
p5
I807
ssS'com.typemytype.robofont.layerData'
p6
(dp7
sS'org.robofab.postScriptHintData'
p8
(dp9
s."
AnchorPoint: "top" 310 710 basechar 0
LayerCount: 2
Fore
SplineSet
105 706 m 257
 105 0 l 257
 165 0 l 257
 165 341 l 257
 205 338 240 337 272 337 c 256
 501 337 554 407 554 535 c 256
 554 660 492 715 280 715 c 256
 231 715 172 712 105 706 c 257
165 386 m 257
 165 665 l 257
 211 668 250 670 285 670 c 256
 454 670 498 631 498 535 c 256
 498 424 461 382 275 382 c 256
 243 382 207 384 165 386 c 257
EndSplineSet
EndChar

StartChar: Q
Encoding: 49 81 89
Width: 792
VWidth: 0
GlyphClass: 2
Flags: HW
PickledData: "(dp1
S'org.pippin.gimp.org.kernagic'
p2
(dp3
S'lstem'
p4
I0
sS'rstem'
p5
I0
ssS'com.typemytype.robofont.layerData'
p6
(dp7
sS'org.robofab.postScriptHintData'
p8
(dp9
s."
LayerCount: 2
Fore
SplineSet
452 11 m 257
 479 -43 590 -184 601 -200 c 257
 636 -170 l 257
 615 -148 513 -13 497 22 c 257
 452 11 l 257
EndSplineSet
Refer: 76 79 N 1 0 0 1 0 0 2
EndChar

StartChar: R
Encoding: 50 82 90
Width: 670
VWidth: 0
GlyphClass: 2
Flags: HW
PickledData: "(dp1
S'org.pippin.gimp.org.kernagic'
p2
(dp3
S'lstem'
p4
I0
sS'rstem'
p5
I839
ssS'com.fontlab.hintData'
p6
(dp7
S'vhints'
p8
((dp9
S'position'
p10
I1122
sS'width'
p11
I117
stp12
sS'hhints'
p13
((dp14
g10
I722
sg11
I96
s(dp15
g10
I1355
sg11
I94
stp16
ssS'com.typemytype.robofont.layerData'
p17
(dp18
sS'org.robofab.postScriptHintData'
p19
(dp20
s."
HStem: 353 47 662 46
VStem: 548 57
AnchorPoint: "top" 342 711 basechar 0
LayerCount: 2
Fore
SplineSet
595 535 m 256
 595 663 543 715 312 715 c 256
 255 715 186 712 105 706 c 257
 105 0 l 257
 165 0 l 257
 165 352 l 257
 396 353 l 257
 559 0 l 257
 618 0 l 257
 618 8 l 257
 456 358 l 257
 547 378 595 430 595 535 c 256
165 665 m 257
 224 669 275 672 317 672 c 256
 507 672 540 628 540 533 c 256
 540 433 507 396 354 396 c 258
 165 396 l 257
 165 665 l 257
EndSplineSet
EndChar

StartChar: S
Encoding: 51 83 94
Width: 586
VWidth: 0
GlyphClass: 2
Flags: HW
PickledData: "(dp1
S'org.pippin.gimp.org.kernagic'
p2
(dp3
S'lstem'
p4
I185
sS'rstem'
p5
I826
ssS'com.typemytype.robofont.guides'
p6
((dp7
S'y'
I973
sS'x'
I1035
sS'magnetic'
p8
I5
sS'angle'
p9
F90
sS'isGlobal'
p10
I00
s(dp11
S'y'
I382
sS'x'
I75
sg8
I5
sg9
F90
sg10
I00
stp12
sS'com.typemytype.robofont.layerData'
p13
(dp14
sS'org.robofab.postScriptHintData'
p15
(dp16
s."
AnchorPoint: "top" 301 714 basechar 0
LayerCount: 2
Fore
SplineSet
475 190 m 256
 475 79 404 38 292 38 c 256
 204 38 148 64 101 107 c 257
 97 107 l 257
 68 74 l 257
 94 44 162 -9 292 -9 c 256
 415 -9 528 37 528 191 c 256
 528 310 451 340 353 380 c 258
 243 425 l 258
 155 461 129 478 129 549 c 256
 129 645 223 674 308 674 c 256
 388 674 444 641 473 613 c 257
 478 613 l 257
 503 647 l 257
 467 685 395 720 310 720 c 256
 201 720 73 687 73 541 c 256
 73 443 129 415 226 376 c 257
 334 332 l 257
 442 289 475 264 475 190 c 256
EndSplineSet
EndChar

StartChar: T
Encoding: 52 84 100
Width: 550
VWidth: 0
GlyphClass: 2
Flags: HW
PickledData: "(dp1
S'org.pippin.gimp.org.kernagic'
p2
(dp3
S'lstem'
p4
I285
sS'rstem'
p5
I844
ssS'com.typemytype.robofont.layerData'
p6
(dp7
sS'org.robofab.postScriptHintData'
p8
(dp9
s."
AnchorPoint: "top" 276 710 basechar 0
LayerCount: 2
Fore
SplineSet
17 710 m 257
 17 667 l 257
 245 667 l 257
 245 0 l 257
 304 0 l 257
 304 667 l 257
 534 667 l 257
 534 710 l 257
 17 710 l 257
EndSplineSet
EndChar

StartChar: Thorn
Encoding: 157 222 105
Width: 583
VWidth: 0
GlyphClass: 2
Flags: HW
PickledData: "(dp1
S'org.pippin.gimp.org.kernagic'
p2
(dp3
S'lstem'
p4
I0
sS'rstem'
p5
I0
ssS'com.typemytype.robofont.layerData'
p6
(dp7
S'b'
(dp8
S'name'
p9
S'Thorn'
p10
sS'lib'
p11
(dp12
sS'unicodes'
p13
(tsS'width'
p14
I1192
sS'contours'
p15
(tsS'components'
p16
(tsS'anchors'
p17
(tsssS'org.robofab.postScriptHintData'
p18
(dp19
s."
LayerCount: 2
Fore
SplineSet
103 0 m 257
 163 0 l 257
 163 216 l 257
 306 216 l 258
 456 216 519 277 519 400 c 256
 519 520 432 565 308 565 c 258
 162 565 l 257
 162 718 l 257
 103 718 l 257
 103 0 l 257
162 520 m 257
 307 520 l 258
 397 520 459 494 459 400 c 256
 459 291 413 261 309 261 c 258
 162 261 l 257
 162 520 l 257
EndSplineSet
EndChar

StartChar: U
Encoding: 53 85 106
Width: 708
VWidth: 0
GlyphClass: 2
Flags: HW
PickledData: "(dp1
S'org.pippin.gimp.org.kernagic'
p2
(dp3
S'lstem'
p4
I0
sS'rstem'
p5
I0
ssS'com.typemytype.robofont.layerData'
p6
(dp7
sS'org.robofab.postScriptHintData'
p8
(dp9
s."
AnchorPoint: "top" 356 710 basechar 0
LayerCount: 2
Fore
SplineSet
563 711 m 257
 563 263 l 258
 563 117 498 38 354 38 c 256
 203 38 145 118 145 263 c 258
 145 711 l 257
 85 711 l 257
 85 265 l 258
 85 107 160 -9 354 -9 c 256
 546 -9 623 111 623 263 c 258
 623 711 l 257
 563 711 l 257
EndSplineSet
EndChar

StartChar: V
Encoding: 54 86 117
Width: 673
VWidth: 0
GlyphClass: 2
Flags: HW
PickledData: "(dp1
S'org.pippin.gimp.org.kernagic'
p2
(dp3
S'lstem'
p4
I0
sS'rstem'
p5
I0
ssS'com.typemytype.robofont.layerData'
p6
(dp7
sS'org.robofab.postScriptHintData'
p8
(dp9
s."
LayerCount: 2
Fore
SplineSet
318 0 m 257
 354 0 l 257
 636 710 l 257
 575 710 l 257
 495 502 415 293 335 85 c 257
 255 293 176 502 97 710 c 257
 38 710 l 257
 318 0 l 257
EndSplineSet
EndChar

StartChar: W
Encoding: 55 87 118
Width: 998
VWidth: 0
GlyphClass: 2
Flags: HW
PickledData: "(dp1
S'org.pippin.gimp.org.kernagic'
p2
(dp3
S'lstem'
p4
I0
sS'rstem'
p5
I0
ssS'com.typemytype.robofont.layerData'
p6
(dp7
sS'org.robofab.postScriptHintData'
p8
(dp9
s."
AnchorPoint: "top" 501 710 basechar 0
LayerCount: 2
Fore
SplineSet
502 627 m 257
 693 0 l 257
 753 0 l 257
 963 710 l 257
 906 710 l 257
 724 73 l 257
 532 690 l 257
 471 690 l 257
 281 75 l 257
 87 710 l 257
 35 710 l 257
 251 0 l 257
 309 0 l 257
 502 627 l 257
EndSplineSet
EndChar

StartChar: X
Encoding: 56 88 123
Width: 632
VWidth: 0
GlyphClass: 2
Flags: HW
PickledData: "(dp1
S'org.pippin.gimp.org.kernagic'
p2
(dp3
S'lstem'
p4
I0
sS'rstem'
p5
I0
ssS'com.typemytype.robofont.layerData'
p6
(dp7
sS'org.robofab.postScriptHintData'
p8
(dp9
s."
LayerCount: 2
Fore
SplineSet
346 354 m 257
 579 710 l 257
 518 710 l 257
 317 398 l 257
 111 710 l 257
 50 710 l 257
 283 357 l 257
 45 0 l 257
 105 0 l 257
 313 312 l 257
 519 0 l 257
 579 0 l 257
 346 354 l 257
EndSplineSet
EndChar

StartChar: Y
Encoding: 57 89 124
Width: 617
VWidth: 0
GlyphClass: 2
Flags: HW
PickledData: "(dp1
S'org.pippin.gimp.org.kernagic'
p2
(dp3
S'lstem'
p4
I0
sS'rstem'
p5
I0
ssS'com.typemytype.robofont.layerData'
p6
(dp7
sS'org.robofab.postScriptHintData'
p8
(dp9
s."
AnchorPoint: "top" 309 710 basechar 0
LayerCount: 2
Fore
SplineSet
345 281 m 257
 582 710 l 257
 526 710 l 257
 315 330 l 257
 88 710 l 257
 35 710 l 257
 287 281 l 257
 287 0 l 257
 345 0 l 257
 345 281 l 257
EndSplineSet
EndChar

StartChar: Z
Encoding: 58 90 129
Width: 583
VWidth: 0
GlyphClass: 2
Flags: HW
PickledData: "(dp1
S'org.pippin.gimp.org.kernagic'
p2
(dp3
S'lstem'
p4
I0
sS'rstem'
p5
I0
ssS'com.typemytype.robofont.layerData'
p6
(dp7
sS'org.robofab.postScriptHintData'
p8
(dp9
s."
AnchorPoint: "top" 324 710 basechar 0
LayerCount: 2
Fore
SplineSet
61 0 m 257
 532 0 l 257
 538 46 l 257
 119 46 l 257
 534 667 l 257
 529 710 l 257
 83 710 l 257
 83 664 l 257
 473 664 l 257
 61 49 l 257
 61 0 l 257
EndSplineSet
EndChar

StartChar: a
Encoding: 65 97 133
Width: 544
VWidth: 0
GlyphClass: 2
Flags: HW
PickledData: "(dp1
S'org.pippin.gimp.org.kernagic'
p2
(dp3
S'lstem'
p4
I0
sS'rstem'
p5
I0
ssS'com.typemytype.robofont.layerData'
p6
(dp7
sS'com.typemytype.robofont.guides'
p8
(tsS'com.fontlab.hintData'
p9
(dp10
S'vhints'
p11
((dp12
S'position'
p13
I126
sS'width'
p14
I120
s(dp15
g13
I842
sg14
I32
s(dp16
g13
I875
sg14
I86
stp17
sS'hhints'
p18
((dp19
g13
I-15
sg14
I92
s(dp20
g13
I535
sg14
I82
s(dp21
g13
I983
sg14
I92
stp22
ssS'org.robofab.postScriptHintData'
p23
(dp24
s."
HStem: -7 45 261 40 480 45
VStem: 62 59 411 16 427 42
AnchorPoint: "top" 268 528 basechar 0
LayerCount: 2
Fore
SplineSet
230 37 m 256
 168 37 116 64 116 138 c 256
 116 212 147 254 298 254 c 258
 303 254 l 257
 403 253 l 257
 403 126 l 257
 354 60 295 37 230 37 c 256
57 138 m 256
 57 42 125 -8 225 -8 c 256
 289 -8 353 11 408 81 c 257
 415 0 l 257
 461 0 l 257
 461 354 l 258
 461 492 383 539 266 539 c 256
 203 539 125 521 83 494 c 257
 104 448 l 257
 151 478 215 494 268 494 c 256
 357 494 403 450 403 362 c 258
 403 293 l 257
 298 295 l 257
 289 295 l 258
 121 295 57 239 57 138 c 256
EndSplineSet
Substitution2: "Single Substitution lookup 3 subtable" ordfeminine
EndChar

StartChar: acute
Encoding: 115 180 137
Width: 339
VWidth: 0
GlyphClass: 4
Flags: HW
PickledData: "(dp1
S'org.robofab.postScriptHintData'
p2
(dp3
sS'com.typemytype.robofont.layerData'
p4
(dp5
s."
AnchorPoint: "top" 132 528 mark 0
LayerCount: 2
Fore
SplineSet
113 591 m 257
 149 591 l 257
 284 766 l 257
 215 766 l 257
 113 591 l 257
EndSplineSet
EndChar

StartChar: ae
Encoding: 165 230 139
Width: 854
VWidth: 0
GlyphClass: 2
Flags: HW
PickledData: "(dp1
S'org.pippin.gimp.org.kernagic'
p2
(dp3
S'lstem'
p4
I0
sS'rstem'
p5
I0
ssS'com.fontlab.hintData'
p6
(dp7
S'vhints'
p8
((dp9
S'position'
p10
I126
sS'width'
p11
I119
s(dp12
g10
I817
sg11
I117
s(dp13
g10
I817
sg11
I82
s(dp14
g10
I1556
sg11
I98
stp15
sS'hhints'
p16
((dp17
g10
I-14
sg11
I98
s(dp18
g10
I518
sg11
I82
s(dp19
g10
I983
sg11
I92
stp20
ssS'com.typemytype.robofont.layerData'
p21
(dp22
sS'org.robofab.postScriptHintData'
p23
(dp24
s."
HStem: -7 48 253 40 480 45
VStem: 62 58 399 57 399 40 760 48
AnchorPoint: "top" 444 528 basechar 0
LayerCount: 2
Fore
SplineSet
619 491 m 256
 703 491 745 440 745 390 c 256
 745 327 697 292 518 292 c 256
 497 292 473 293 448 294 c 257
 458 408 515 491 619 491 c 256
222 41 m 256
 163 41 110 69 110 148 c 256
 110 218 144 259 291 259 c 256
 300 259 374 258 391 256 c 257
 391 251 l 258
 391 224 394 171 404 148 c 257
 376 82 298 41 222 41 c 256
798 392 m 256
 798 470 734 538 618 538 c 256
 538 538 456 497 432 408 c 257
 422 504 351 538 256 538 c 256
 189 538 122 518 73 488 c 257
 97 447 l 257
 151 480 217 493 268 493 c 258
 269 493 l 258
 356 493 392 448 392 361 c 258
 392 297 l 257
 374 299 288 300 278 300 c 256
 110 300 51 240 51 143 c 256
 51 36 122 -6 208 -8 c 256
 291 -8 390 29 433 97 c 257
 471 28 539 -9 624 -9 c 256
 697 -9 751 10 799 37 c 257
 780 77 l 257
 722 48 687 37 633 37 c 256
 529 37 453 98 447 253 c 257
 476 253 504 252 529 252 c 256
 712 252 798 274 798 392 c 256
EndSplineSet
EndChar

StartChar: ampersand
Encoding: 6 38 144
Width: 716
VWidth: 0
GlyphClass: 2
Flags: HW
PickledData: "(dp1
S'org.pippin.gimp.org.kernagic'
p2
(dp3
S'lstem'
p4
I0
sS'rstem'
p5
I0
ssS'com.fontlab.hintData'
p6
(dp7
S'vhints'
p8
((dp9
S'position'
p10
I135
sS'width'
p11
I121
s(dp12
g10
I312
sg11
I105
s(dp13
g10
I917
sg11
I110
stp14
sS'hhints'
p15
((dp16
g10
I-19
sg11
I96
s(dp17
g10
I1372
sg11
I96
stp18
ssS'com.typemytype.robofont.layerData'
p19
(dp20
sS'org.robofab.postScriptHintData'
p21
(dp22
s."
HStem: -9 47 670 47
VStem: 66 59 152 51 448 54
LayerCount: 2
Fore
SplineSet
321 678 m 256
 392 678 436 636 436 571 c 256
 436 494 355 448 272 409 c 257
 202 487 186 519 186 571 c 256
 186 634 241 678 321 678 c 256
81 181 m 256
 81 61 163 -9 315 -9 c 256
 399 -9 469 26 525 76 c 257
 608 -12 l 257
 641 21 l 257
 558 108 l 257
 606 160 642 222 665 276 c 257
 630 300 l 257
 599 234 565 181 528 139 c 257
 302 378 l 257
 402 424 484 479 484 569 c 256
 484 663 418 720 322 720 c 256
 212 720 139 659 139 570 c 256
 139 508 164 462 229 389 c 257
 132 334 81 272 81 181 c 256
324 36 m 256
 201 36 136 88 136 184 c 256
 136 257 178 309 261 356 c 257
 497 107 l 257
 444 60 386 36 324 36 c 256
EndSplineSet
EndChar

StartChar: uni02BC
Encoding: 65538 700 146
Width: 313
VWidth: 0
Flags: HW
PickledData: "(dp1
S'org.robofab.postScriptHintData'
p2
(dp3
sS'com.typemytype.robofont.layerData'
p4
(dp5
s."
LayerCount: 2
Fore
SplineSet
75 581 m 257
 115 581 l 257
 115 581 170 769 173 785 c 257
 111 785 l 257
 110 777 75 581 75 581 c 257
EndSplineSet
EndChar

StartChar: approxequal
Encoding: 477 8776 147
Width: 605
VWidth: 0
GlyphClass: 2
Flags: HW
PickledData: "(dp1
S'org.pippin.gimp.org.kernagic'
p2
(dp3
S'lstem'
p4
I0
sS'rstem'
p5
I0
ssS'com.typemytype.robofont.layerData'
p6
(dp7
S'b'
(dp8
S'name'
p9
S'approxequal'
p10
sS'lib'
p11
(dp12
sS'unicodes'
p13
(tsS'width'
p14
I1136
sS'contours'
p15
(tsS'components'
p16
(tsS'anchors'
p17
(tsssS'org.robofab.postScriptHintData'
p18
(dp19
s."
LayerCount: 2
Fore
SplineSet
439 266 m 256
 407 266 365 285 316 308 c 256
 263 333 220 349 179 349 c 256
 124 349 85 316 67 250 c 257
 89 227 l 257
 104 283 138 310 180 310 c 256
 215 310 255 293 300 272 c 256
 355 246 402 228 441 228 c 256
 495 228 528 261 539 327 c 257
 516 348 l 257
 509 294 479 266 439 266 c 256
439 439 m 256
 407 439 365 457 316 480 c 256
 263 505 220 522 179 522 c 256
 124 522 85 489 67 423 c 257
 89 400 l 257
 104 456 138 483 180 483 c 256
 215 483 255 466 300 445 c 256
 355 419 402 401 441 401 c 256
 495 401 528 434 539 500 c 257
 516 521 l 257
 509 467 479 439 439 439 c 256
EndSplineSet
EndChar

StartChar: asciicircum
Encoding: 62 94 150
Width: 614
VWidth: 0
GlyphClass: 2
Flags: HW
PickledData: "(dp1
S'org.pippin.gimp.org.kernagic'
p2
(dp3
S'lstem'
p4
I0
sS'rstem'
p5
I0
ssS'com.typemytype.robofont.layerData'
p6
(dp7
sS'org.robofab.postScriptHintData'
p8
(dp9
s."
LayerCount: 2
Fore
SplineSet
288 711 m 257
 65 165 l 257
 114 165 l 257
 305 641 l 257
 499 165 l 257
 549 165 l 257
 321 711 l 257
 288 711 l 257
EndSplineSet
EndChar

StartChar: asciitilde
Encoding: 94 126 151
Width: 589
VWidth: 0
GlyphClass: 2
Flags: HW
PickledData: "(dp1
S'org.pippin.gimp.org.kernagic'
p2
(dp3
S'lstem'
p4
I0
sS'rstem'
p5
I0
ssS'com.typemytype.robofont.layerData'
p6
(dp7
S'b'
(dp8
S'name'
p9
S'asciitilde'
p10
sS'lib'
p11
(dp12
sS'unicodes'
p13
(tsS'width'
p14
I1192
sS'contours'
p15
(tsS'components'
p16
(tsS'anchors'
p17
(tsssS'org.robofab.postScriptHintData'
p18
(dp19
s."
LayerCount: 2
Fore
SplineSet
57 248 m 257
 81 294 125 330 169 330 c 256
 204 330 245 311 303 286 c 256
 341 269 378 255 407 255 c 256
 463 255 492 289 515 354 c 257
 500 385 l 257
 490 344 447 302 405 302 c 256
 374 302 331 324 282 345 c 256
 230 368 207 379 169 379 c 256
 110 379 67 338 46 283 c 257
 57 248 l 257
EndSplineSet
EndChar

StartChar: asterisk
Encoding: 10 42 152
Width: 541
VWidth: 0
GlyphClass: 2
Flags: HW
PickledData: "(dp1
S'org.pippin.gimp.org.kernagic'
p2
(dp3
S'lstem'
p4
I0
sS'rstem'
p5
I0
ssS'com.typemytype.robofont.layerData'
p6
(dp7
sS'org.robofab.postScriptHintData'
p8
(dp9
s."
LayerCount: 2
Fore
SplineSet
171 294 m 257
 268 478 l 257
 373 294 l 257
 414 320 381 303 423 329 c 257
 356 415 318 469 298 496 c 257
 480 537 l 257
 463 597 l 257
 286 522 l 257
 305 724 l 257
 238 724 l 257
 256 522 l 257
 79 597 l 257
 63 537 l 257
 242 496 l 257
 122 329 l 257
 171 294 l 257
EndSplineSet
EndChar

StartChar: at
Encoding: 32 64 153
Width: 1006
VWidth: 0
GlyphClass: 2
Flags: HW
PickledData: "(dp1
S'org.pippin.gimp.org.kernagic'
p2
(dp3
S'lstem'
p4
I0
sS'rstem'
p5
I0
ssS'com.typemytype.robofont.layerData'
p6
(dp7
sS'org.robofab.postScriptHintData'
p8
(dp9
s."
LayerCount: 2
Fore
SplineSet
463 139 m 256
 401 139 365 184 365 277 c 256
 365 403 434 489 535 489 c 256
 552 489 592 482 619 476 c 257
 594 334 l 257
 577 231 541 139 463 139 c 256
491 -114 m 256
 589 -114 680 -89 746 -45 c 257
 729 -8 l 257
 661 -50 577 -70 493 -70 c 256
 288 -70 146 62 146 291 c 256
 146 521 308 687 524 687 c 256
 727 687 858 554 858 365 c 256
 858 240 800 145 723 145 c 256
 672 145 646 188 646 237 c 256
 646 301 657 369 678 498 c 257
 634 515 579 529 530 529 c 256
 388 529 310 411 310 274 c 256
 310 164 366 95 456 95 c 256
 530 95 581 152 607 229 c 257
 618 139 676 104 723 104 c 263
 811 104 906 191 906 364 c 256
 906 591 743 731 525 731 c 256
 272 731 91 544 91 291 c 256
 91 37 249 -114 491 -114 c 256
EndSplineSet
EndChar

StartChar: b
Encoding: 66 98 155
Width: 599
VWidth: 0
GlyphClass: 2
Flags: HW
PickledData: "(dp1
S'org.pippin.gimp.org.kernagic'
p2
(dp3
S'lstem'
p4
I0
sS'rstem'
p5
I0
ssS'com.typemytype.robofont.layerData'
p6
(dp7
sS'com.typemytype.robofont.guides'
p8
(tsS'com.fontlab.hintData'
p9
(dp10
S'vhints'
p11
((dp12
S'position'
p13
I193
sS'width'
p14
I125
s(dp15
g13
I193
sg14
I94
s(dp16
g13
I1018
sg14
I122
stp17
sS'hhints'
p18
((dp19
g13
I-19
sg14
I92
s(dp20
g13
I982
sg14
I92
stp21
ssS'org.robofab.postScriptHintData'
p22
(dp23
s."
HStem: -9 45 479 45
VStem: 94 61 94 46 497 60
AnchorPoint: "top" 327 528 basechar 0
LayerCount: 2
Fore
SplineSet
312 35 m 256
 225 35 173 78 145 134 c 257
 145 281 l 257
 145 407 211 494 317 494 c 256
 442 494 481 390 481 263 c 256
 481 133 432 35 312 35 c 256
323 539 m 256
 250 539 183 504 146 425 c 257
 147 529 l 257
 147 762 l 257
 88 752 l 257
 88 0 l 257
 132 0 l 257
 137 77 l 257
 168 31 224 -10 313 -10 c 256
 459 -10 542 100 542 262 c 256
 542 430 469 539 323 539 c 256
EndSplineSet
EndChar

StartChar: backslash
Encoding: 60 92 156
Width: 470
VWidth: 0
GlyphClass: 2
Flags: HW
PickledData: "(dp1
S'org.pippin.gimp.org.kernagic'
p2
(dp3
S'lstem'
p4
I0
sS'rstem'
p5
I0
ssS'com.typemytype.robofont.layerData'
p6
(dp7
S'b'
(dp8
S'name'
p9
S'backslash'
p10
sS'lib'
p11
(dp12
sS'unicodes'
p13
(tsS'width'
p14
I937
sS'contours'
p15
(tsS'components'
p16
(tsS'anchors'
p17
(tsssS'org.robofab.postScriptHintData'
p18
(dp19
s."
LayerCount: 2
Fore
SplineSet
343 -25 m 257
 384 -25 l 257
 102 715 l 257
 61 715 l 257
 343 -25 l 257
EndSplineSet
EndChar

StartChar: bar
Encoding: 92 124 157
Width: 175
VWidth: 0
GlyphClass: 2
Flags: HW
PickledData: "(dp1
S'org.pippin.gimp.org.kernagic'
p2
(dp3
S'lstem'
p4
I0
sS'rstem'
p5
I0
ssS'com.typemytype.robofont.layerData'
p6
(dp7
S'b'
(dp8
S'name'
p9
S'bar'
p10
sS'lib'
p11
(dp12
sS'unicodes'
p13
(tsS'width'
p14
I681
sS'contours'
p15
(tsS'components'
p16
(tsS'anchors'
p17
(tsssS'org.robofab.postScriptHintData'
p18
(dp19
s."
LayerCount: 2
Fore
SplineSet
60 747 m 257
 60 -178 l 257
 106 -178 l 257
 106 747 l 257
 60 747 l 257
EndSplineSet
EndChar

StartChar: braceleft
Encoding: 91 123 158
Width: 408
VWidth: 0
GlyphClass: 2
Flags: HW
PickledData: "(dp1
S'org.pippin.gimp.org.kernagic'
p2
(dp3
S'lstem'
p4
I0
sS'rstem'
p5
I0
ssS'com.typemytype.robofont.layerData'
p6
(dp7
sS'org.robofab.postScriptHintData'
p8
(dp9
s."
LayerCount: 2
Fore
SplineSet
323 -134 m 257
 323 -94 l 257
 249 -93 232 -71 232 28 c 258
 232 158 l 258
 232 244 217 286 142 297 c 257
 217 308 232 351 232 437 c 258
 232 566 l 258
 232 665 251 689 325 689 c 257
 325 729 l 257
 201 729 175 690 175 570 c 258
 175 467 l 258
 175 367 172 319 73 318 c 257
 73 277 l 257
 173 276 175 227 175 127 c 258
 175 25 l 258
 175 -95 199 -134 323 -134 c 257
EndSplineSet
EndChar

StartChar: braceright
Encoding: 93 125 159
Width: 408
VWidth: 0
GlyphClass: 2
Flags: HW
PickledData: "(dp1
S'org.pippin.gimp.org.kernagic'
p2
(dp3
S'lstem'
p4
I0
sS'rstem'
p5
I0
ssS'com.typemytype.robofont.layerData'
p6
(dp7
sS'org.robofab.postScriptHintData'
p8
(dp9
s."
LayerCount: 2
Fore
SplineSet
62 -134 m 257
 186 -134 209 -95 209 25 c 258
 209 127 l 258
 209 227 212 276 312 277 c 257
 312 318 l 257
 213 319 209 367 209 467 c 258
 209 570 l 258
 209 690 184 729 60 729 c 257
 60 689 l 257
 134 689 152 665 152 566 c 258
 152 437 l 258
 152 351 168 308 243 297 c 257
 168 286 152 244 152 158 c 258
 152 28 l 258
 152 -71 136 -93 62 -94 c 257
 62 -134 l 257
EndSplineSet
EndChar

StartChar: bracketleft
Encoding: 59 91 160
Width: 341
VWidth: 0
GlyphClass: 2
Flags: HW
PickledData: "(dp1
S'org.pippin.gimp.org.kernagic'
p2
(dp3
S'lstem'
p4
I0
sS'rstem'
p5
I0
ssS'com.typemytype.robofont.layerData'
p6
(dp7
sS'org.robofab.postScriptHintData'
p8
(dp9
s."
LayerCount: 2
Fore
SplineSet
95 -115 m 257
 309 -115 l 257
 309 -73 l 257
 153 -73 l 257
 153 702 l 257
 309 702 l 257
 309 745 l 257
 95 745 l 257
 95 -115 l 257
EndSplineSet
EndChar

StartChar: bracketright
Encoding: 61 93 161
Width: 370
VWidth: 0
GlyphClass: 2
Flags: HW
PickledData: "(dp1
S'org.pippin.gimp.org.kernagic'
p2
(dp3
S'lstem'
p4
I0
sS'rstem'
p5
I0
ssS'com.typemytype.robofont.layerData'
p6
(dp7
sS'org.robofab.postScriptHintData'
p8
(dp9
s."
LayerCount: 2
Fore
SplineSet
70 -115 m 257
 284 -115 l 257
 284 745 l 257
 70 745 l 257
 70 702 l 257
 226 702 l 257
 226 -73 l 257
 70 -73 l 257
 70 -115 l 257
EndSplineSet
EndChar

StartChar: breve
Encoding: 401 728 162
Width: 408
VWidth: 0
GlyphClass: 4
Flags: HW
PickledData: "(dp1
S'org.robofab.postScriptHintData'
p2
(dp3
sS'com.typemytype.robofont.layerData'
p4
(dp5
s."
AnchorPoint: "top" 203 516 mark 0
LayerCount: 2
Fore
SplineSet
200 620 m 256
 255 620 306 651 306 730 c 257
 271 730 l 257
 271 676 230 655 200 655 c 256
 170 655 133 676 133 730 c 257
 97 730 l 257
 97 651 145 620 200 620 c 256
EndSplineSet
EndChar

StartChar: uni0311
Encoding: 409 785 163
Width: 367
VWidth: 0
Flags: HW
PickledData: "(dp1
S'org.robofab.postScriptHintData'
p2
(dp3
sS'com.typemytype.robofont.layerData'
p4
(dp5
s."
AnchorPoint: "top" 191 516 mark 0
LayerCount: 2
Fore
SplineSet
84 620 m 257
 120 620 l 257
 120 674 158 695 188 695 c 256
 219 695 259 674 259 620 c 257
 293 620 l 257
 293 699 244 730 188 730 c 256
 133 730 84 699 84 620 c 257
EndSplineSet
EndChar

StartChar: brokenbar
Encoding: 101 166 164
Width: 145
VWidth: 0
GlyphClass: 2
Flags: HW
PickledData: "(dp1
S'org.pippin.gimp.org.kernagic'
p2
(dp3
S'lstem'
p4
I0
sS'rstem'
p5
I0
ssS'com.typemytype.robofont.layerData'
p6
(dp7
S'b'
(dp8
S'name'
p9
S'brokenbar'
p10
sS'lib'
p11
(dp12
sS'unicodes'
p13
(tsS'width'
p14
I653
sS'contours'
p15
(tsS'components'
p16
(tsS'anchors'
p17
(tsssS'org.robofab.postScriptHintData'
p18
(dp19
s."
LayerCount: 2
Fore
SplineSet
49 734 m 257
 49 392 l 257
 91 392 l 257
 91 734 l 257
 49 734 l 257
49 267 m 257
 49 -78 l 257
 91 -78 l 257
 91 267 l 257
 49 267 l 257
EndSplineSet
EndChar

StartChar: bullet
Encoding: 454 8226 165
Width: 412
VWidth: 0
GlyphClass: 2
Flags: HW
PickledData: "(dp1
S'org.pippin.gimp.org.kernagic'
p2
(dp3
S'lstem'
p4
I0
sS'rstem'
p5
I0
ssS'com.typemytype.robofont.layerData'
p6
(dp7
S'b'
(dp8
S'name'
p9
S'bullet'
p10
sS'lib'
p11
(dp12
sS'unicodes'
p13
(tsS'width'
p14
I908
sS'contours'
p15
(tsS'components'
p16
(tsS'anchors'
p17
(tsssS'org.robofab.postScriptHintData'
p18
(dp19
s."
LayerCount: 2
Fore
SplineSet
201 217 m 256
 276 217 352 270 352 375 c 256
 352 480 278 532 204 532 c 256
 129 532 54 479 54 373 c 256
 54 269 127 217 201 217 c 256
EndSplineSet
EndChar

StartChar: c
Encoding: 67 99 166
Width: 527
VWidth: 0
GlyphClass: 2
Flags: HW
PickledData: "(dp1
S'org.pippin.gimp.org.kernagic'
p2
(dp3
S'lstem'
p4
I0
sS'rstem'
p5
I696
ssS'com.typemytype.robofont.layerData'
p6
(dp7
sS'com.typemytype.robofont.guides'
p8
((dp9
S'y'
I417
sS'x'
I962
sS'magnetic'
p10
I5
sS'angle'
p11
F90
sS'isGlobal'
p12
I00
s(dp13
S'y'
I1020
sS'x'
I565
sg10
I5
sg11
F90
sg12
I00
s(dp14
S'y'
I994
sS'x'
I572
sg10
I5
sg11
F90
sg12
I00
stp15
sS'com.fontlab.hintData'
p16
(dp17
S'vhints'
p18
((dp19
S'position'
p20
I128
sS'width'
p21
I120
stp22
sS'hhints'
p23
((dp24
g20
I-19
sg21
I92
s(dp25
g20
I982
sg21
I92
stp26
ssS'org.robofab.postScriptHintData'
p27
(dp28
s."
HStem: -9 45 479 45
VStem: 62 59
AnchorPoint: "top" 300 528 basechar 0
LayerCount: 2
Fore
SplineSet
437 128 m 257
 416 72 363 35 292 35 c 256
 180 35 118 123 118 265 c 256
 118 407 180 494 292 494 c 256
 363 494 416 457 437 400 c 257
 444 400 l 257
 479 418 l 257
 459 485 393 539 291 539 c 256
 147 539 58 433 58 265 c 256
 58 97 147 -10 291 -10 c 256
 393 -10 459 44 479 111 c 257
 445 128 l 257
 437 128 l 257
EndSplineSet
EndChar

StartChar: caron
Encoding: 399 711 168
Width: 421
VWidth: 0
GlyphClass: 4
Flags: HW
PickledData: "(dp1
S'org.robofab.postScriptHintData'
p2
(dp3
sS'com.typemytype.robofont.layerData'
p4
(dp5
s."
AnchorPoint: "top" 210 528 mark 0
LayerCount: 2
Fore
SplineSet
173 593 m 257
 235 593 l 257
 327 749 l 257
 283 749 l 257
 205 631 l 257
 125 749 l 257
 81 749 l 257
 173 593 l 257
EndSplineSet
EndChar

StartChar: caron.alt
Encoding: 65539 -1 169
Width: 393
VWidth: 0
GlyphClass: 4
Flags: HW
PickledData: "(dp1
S'org.robofab.postScriptHintData'
p2
(dp3
sS'com.typemytype.robofont.layerData'
p4
(dp5
s."
AnchorPoint: "caron.alt" 161 528 mark 0
LayerCount: 2
Fore
SplineSet
260 577 m 257
 306 577 l 257
 349 749 l 257
 286 749 l 257
 260 577 l 257
EndSplineSet
EndChar

StartChar: cedilla
Encoding: 119 184 174
Width: 313
VWidth: 0
GlyphClass: 4
Flags: HW
PickledData: "(dp1
S'org.robofab.postScriptHintData'
p2
(dp3
sS'com.typemytype.robofont.layerData'
p4
(dp5
s."
LayerCount: 2
Fore
SplineSet
230 -97 m 256
 230 -141 189 -161 147 -161 c 256
 125 -161 103 -156 84 -146 c 257
 72 -176 l 257
 94 -186 119 -191 146 -191 c 256
 217 -191 268 -155 268 -98 c 256
 268 -46 229 -21 185 -21 c 256
 169 -21 153 -23 137 -29 c 257
 138 -49 l 257
 151 -47 161 -45 170 -45 c 256
 219 -45 230 -75 230 -97 c 256
EndSplineSet
EndChar

StartChar: cent
Encoding: 97 162 175
Width: 506
VWidth: 0
GlyphClass: 2
Flags: HW
PickledData: "(dp1
S'org.pippin.gimp.org.kernagic'
p2
(dp3
S'lstem'
p4
I0
sS'rstem'
p5
I0
ssS'com.typemytype.robofont.layerData'
p6
(dp7
sS'org.robofab.postScriptHintData'
p8
(dp9
s."
LayerCount: 2
Fore
SplineSet
265 11 m 257
 265 -145 l 257
 310 -145 l 257
 314 11 l 257
 265 11 l 257
267 674 m 257
 265 519 l 257
 312 519 l 257
 312 674 l 257
 267 674 l 257
EndSplineSet
Refer: 166 99 N 1 0 0 1 0 0 2
EndChar

StartChar: circumflex
Encoding: 398 710 176
Width: 419
VWidth: 0
GlyphClass: 4
Flags: HW
PickledData: "(dp1
S'org.robofab.postScriptHintData'
p2
(dp3
sS'com.typemytype.robofont.layerData'
p4
(dp5
s."
AnchorPoint: "top" 208 528 mark 0
LayerCount: 2
Fore
SplineSet
81 595 m 257
 125 595 l 257
 204 713 l 257
 283 595 l 257
 327 595 l 257
 235 751 l 257
 172 751 l 257
 81 595 l 257
EndSplineSet
EndChar

StartChar: colon
Encoding: 26 58 177
Width: 263
VWidth: 0
GlyphClass: 2
Flags: HW
PickledData: "(dp1
S'org.pippin.gimp.org.kernagic'
p2
(dp3
S'lstem'
p4
I0
sS'rstem'
p5
I0
ssS'com.typemytype.robofont.layerData'
p6
(dp7
S'b'
(dp8
S'name'
p9
S'colon'
p10
sS'lib'
p11
(dp12
sS'unicodes'
p13
(tsS'width'
p14
I653
sS'contours'
p15
(tsS'components'
p16
(tsS'anchors'
p17
(tsssS'org.robofab.postScriptHintData'
p18
(dp19
s."
LayerCount: 2
Fore
SplineSet
127 -8 m 256
 162 -8 171 17 171 39 c 256
 171 60 162 85 127 85 c 256
 91 85 81 60 81 39 c 256
 81 17 92 -8 127 -8 c 256
127 426 m 256
 162 426 171 451 171 473 c 256
 171 494 162 520 127 520 c 256
 91 520 81 494 81 473 c 256
 81 451 92 426 127 426 c 256
EndSplineSet
EndChar

StartChar: comma
Encoding: 12 44 178
Width: 252
VWidth: 0
GlyphClass: 2
Flags: HW
PickledData: "(dp1
S'org.pippin.gimp.org.kernagic'
p2
(dp3
S'lstem'
p4
I0
sS'rstem'
p5
I0
ssS'com.typemytype.robofont.layerData'
p6
(dp7
sS'org.robofab.postScriptHintData'
p8
(dp9
s."
LayerCount: 2
Fore
SplineSet
83 -145 m 257
 112 -145 l 257
 112 -145 158 64 158 79 c 258
 158 103 l 257
 92 103 l 257
 92 66 83 -145 83 -145 c 257
EndSplineSet
EndChar

StartChar: uni0326
Encoding: 411 806 179
Width: 294
VWidth: 0
Flags: HW
PickledData: "(dp1
S'org.robofab.postScriptHintData'
p2
(dp3
s."
LayerCount: 2
Fore
SplineSet
114 -247 m 257
 146 -247 l 257
 146 -247 183 -106 182 -75 c 257
 126 -75 l 257
 126 -126 114 -247 114 -247 c 257
EndSplineSet
EndChar

StartChar: uni0312
Encoding: 410 786 180
Width: 292
VWidth: 0
Flags: HW
PickledData: "(dp1
S'org.robofab.postScriptHintData'
p2
(dp3
s."
AnchorPoint: "top" 147 516 mark 0
LayerCount: 2
Fore
SplineSet
111 641 m 257
 110 628 l 257
 178 628 l 257
 178 679 185 869 185 869 c 257
 153 869 l 257
 153 869 111 663 111 641 c 257
EndSplineSet
EndChar

StartChar: copyright
Encoding: 104 169 181
Width: 910
VWidth: 0
GlyphClass: 2
Flags: HW
PickledData: "(dp1
S'org.pippin.gimp.org.kernagic'
p2
(dp3
S'lstem'
p4
I0
sS'rstem'
p5
I0
ssS'com.typemytype.robofont.layerData'
p6
(dp7
sS'org.robofab.postScriptHintData'
p8
(dp9
s."
LayerCount: 2
Fore
SplineSet
436 -18 m 256
 623 -18 823 103 823 366 c 256
 823 629 623 750 436 750 c 256
 249 750 52 629 52 366 c 256
 52 103 249 -18 436 -18 c 256
436 16 m 256
 271 16 95 126 95 366 c 256
 95 606 271 715 436 715 c 256
 601 715 778 606 778 366 c 256
 778 126 601 16 436 16 c 256
452 112 m 256
 498 112 547 125 592 154 c 257
 579 190 l 257
 532 162 494 153 452 153 c 256
 347 153 258 234 258 369 c 256
 258 490 346 576 447 576 c 256
 484 576 533 563 571 532 c 257
 590 570 l 257
 544 602 494 617 446 617 c 256
 318 617 205 511 205 365 c 256
 205 216 321 112 452 112 c 256
EndSplineSet
EndChar

StartChar: currency
Encoding: 99 164 182
Width: 657
VWidth: 0
GlyphClass: 2
Flags: HW
PickledData: "(dp1
S'org.pippin.gimp.org.kernagic'
p2
(dp3
S'lstem'
p4
I0
sS'rstem'
p5
I0
ssS'com.typemytype.robofont.layerData'
p6
(dp7
S'b'
(dp8
S'name'
p9
S'currency'
p10
sS'lib'
p11
(dp12
sS'unicodes'
p13
(tsS'width'
p14
I1164
sS'contours'
p15
(tsS'components'
p16
(tsS'anchors'
p17
(tsssS'org.robofab.postScriptHintData'
p18
(dp19
s."
LayerCount: 2
Fore
SplineSet
484 347 m 256
 484 258 426 180 323 180 c 256
 221 180 163 257 163 347 c 256
 163 436 221 515 323 515 c 256
 426 515 484 436 484 347 c 256
456 498 m 257
 420 529 373 546 323 546 c 256
 273 546 227 530 190 498 c 257
 102 583 l 257
 78 560 l 257
 168 472 l 257
 140 436 126 393 126 347 c 256
 126 301 140 259 168 222 c 257
 79 136 l 257
 102 111 l 257
 191 197 l 257
 227 165 272 149 323 149 c 256
 374 149 420 165 456 196 c 257
 545 111 l 257
 566 135 l 257
 478 222 l 257
 506 257 520 299 520 347 c 256
 520 391 507 433 478 472 c 257
 567 558 l 257
 545 583 l 257
 456 498 l 257
EndSplineSet
EndChar

StartChar: d
Encoding: 68 100 183
Width: 595
VWidth: 0
GlyphClass: 2
Flags: HW
PickledData: "(dp1
S'org.pippin.gimp.org.kernagic'
p2
(dp3
S'lstem'
p4
I0
sS'rstem'
p5
I0
ssS'com.fontlab.hintData'
p6
(dp7
S'vhints'
p8
((dp9
S'position'
p10
I114
sS'width'
p11
I166
s(dp12
g10
I907
sg11
I161
s(dp13
g10
I930
sg11
I138
stp14
sS'hhints'
p15
((dp16
g10
I-19
sg11
I127
s(dp17
g10
I953
sg11
I127
stp18
ssS'com.typemytype.robofont.layerData'
p19
(dp20
sS'org.robofab.postScriptHintData'
p21
(dp22
s."
HStem: -9 62 465 62
VStem: 56 81 443 79 454 67
AnchorPoint: "caron.alt" 521 554 basechar 0
AnchorPoint: "top" 281 528 basechar 0
LayerCount: 2
Fore
SplineSet
288 35 m 256
 180 35 118 124 118 267 c 256
 118 406 182 494 292 494 c 256
 362 494 422 461 453 394 c 257
 453 125 l 257
 424 68 363 35 288 35 c 256
451 752 m 257
 451 571 l 257
 455 460 l 257
 425 508 368 538 293 538 c 258
 291 538 l 257
 289 538 l 258
 146 538 58 432 58 267 c 256
 58 99 142 -10 286 -10 c 258
 287 -10 l 258
 356 -10 421 20 458 73 c 257
 463 0 l 257
 511 0 l 257
 511 762 l 257
 451 752 l 257
EndSplineSet
EndChar

StartChar: dagger
Encoding: 452 8224 184
Width: 483
VWidth: 0
GlyphClass: 2
Flags: HW
PickledData: "(dp1
S'org.pippin.gimp.org.kernagic'
p2
(dp3
S'lstem'
p4
I0
sS'rstem'
p5
I0
ssS'com.typemytype.robofont.layerData'
p6
(dp7
S'b'
(dp8
S'name'
p9
S'dagger'
p10
sS'lib'
p11
(dp12
sS'unicodes'
p13
(tsS'width'
p14
I1050
sS'contours'
p15
(tsS'components'
p16
(tsS'anchors'
p17
(tsssS'org.robofab.postScriptHintData'
p18
(dp19
s."
LayerCount: 2
Fore
SplineSet
218 717 m 257
 218 523 l 257
 80 523 l 257
 80 494 l 257
 218 494 l 257
 218 60 l 257
 254 60 l 257
 254 494 l 257
 390 494 l 257
 390 523 l 257
 251 523 l 257
 251 717 l 257
 218 717 l 257
EndSplineSet
EndChar

StartChar: daggerdbl
Encoding: 453 8225 185
Width: 509
VWidth: 0
GlyphClass: 2
Flags: HW
PickledData: "(dp1
S'org.pippin.gimp.org.kernagic'
p2
(dp3
S'lstem'
p4
I0
sS'rstem'
p5
I0
ssS'com.typemytype.robofont.layerData'
p6
(dp7
S'b'
(dp8
S'name'
p9
S'daggerdbl'
p10
sS'lib'
p11
(dp12
sS'unicodes'
p13
(tsS'width'
p14
I1022
sS'contours'
p15
(tsS'components'
p16
(tsS'anchors'
p17
(tsssS'org.robofab.postScriptHintData'
p18
(dp19
s."
LayerCount: 2
Fore
SplineSet
217 714 m 257
 217 520 l 257
 78 520 l 257
 78 490 l 257
 217 490 l 257
 217 267 l 257
 78 267 l 257
 78 237 l 257
 217 237 l 257
 217 60 l 257
 252 60 l 257
 252 237 l 257
 388 237 l 257
 388 267 l 257
 252 267 l 257
 252 490 l 257
 389 490 l 257
 389 520 l 257
 250 520 l 257
 250 714 l 257
 217 714 l 257
EndSplineSet
EndChar

StartChar: uni030F
Encoding: 408 783 186
Width: 373
VWidth: 0
Flags: HW
PickledData: "(dp1
S'org.robofab.postScriptHintData'
p2
(dp3
sS'com.typemytype.robofont.layerData'
p4
(dp5
s."
AnchorPoint: "top" 209 516 mark 0
LayerCount: 2
Fore
SplineSet
238 606 m 257
 274 606 l 257
 217 762 l 257
 166 762 l 257
 238 606 l 257
129 606 m 257
 167 606 l 257
 93 762 l 257
 35 762 l 257
 129 606 l 257
EndSplineSet
EndChar

StartChar: degree
Encoding: 111 176 189
Width: 421
VWidth: 0
GlyphClass: 2
Flags: HW
PickledData: "(dp1
S'org.pippin.gimp.org.kernagic'
p2
(dp3
S'lstem'
p4
I0
sS'rstem'
p5
I0
ssS'com.typemytype.robofont.layerData'
p6
(dp7
sS'org.robofab.postScriptHintData'
p8
(dp9
s."
LayerCount: 2
Fore
SplineSet
208 445 m 256
 282 445 354 502 354 586 c 256
 354 672 280 727 208 727 c 256
 139 727 63 672 63 586 c 256
 63 498 140 445 208 445 c 256
209 482 m 256
 150 482 105 525 105 586 c 256
 105 647 151 690 208 690 c 256
 267 690 313 647 313 586 c 256
 313 526 268 482 209 482 c 256
EndSplineSet
EndChar

StartChar: dieresis
Encoding: 103 168 190
Width: 408
VWidth: 0
GlyphClass: 4
Flags: HW
PickledData: "(dp1
S'org.robofab.postScriptHintData'
p2
(dp3
sS'com.typemytype.robofont.layerData'
p4
(dp5
s."
AnchorPoint: "top" 204 528 mark 0
LayerCount: 2
Fore
SplineSet
292 649 m 256
 321 649 330 668 330 688 c 256
 330 707 321 726 292 726 c 256
 262 726 254 707 254 688 c 256
 254 669 263 649 292 649 c 256
104 649 m 256
 133 649 141 669 141 688 c 256
 141 707 133 726 104 726 c 256
 74 726 66 707 66 688 c 256
 66 669 75 649 104 649 c 256
EndSplineSet
EndChar

StartChar: divide
Encoding: 182 247 191
Width: 526
VWidth: 0
GlyphClass: 2
Flags: HW
PickledData: "(dp1
S'org.pippin.gimp.org.kernagic'
p2
(dp3
S'lstem'
p4
I0
sS'rstem'
p5
I0
ssS'com.typemytype.robofont.layerData'
p6
(dp7
sS'org.robofab.postScriptHintData'
p8
(dp9
s."
LayerCount: 2
Fore
SplineSet
222 520 m 257
 222 437 l 257
 297 437 l 257
 297 520 l 257
 222 520 l 257
222 102 m 257
 222 18 l 257
 297 18 l 257
 297 102 l 257
 222 102 l 257
36 304 m 257
 36 250 l 257
 482 250 l 257
 482 304 l 257
 36 304 l 257
EndSplineSet
EndChar

StartChar: dollar
Encoding: 4 36 192
Width: 586
VWidth: 0
GlyphClass: 2
Flags: HW
PickledData: "(dp1
S'org.pippin.gimp.org.kernagic'
p2
(dp3
S'lstem'
p4
I0
sS'rstem'
p5
I0
ssS'com.typemytype.robofont.layerData'
p6
(dp7
S'b'
(dp8
S'name'
p9
S'dollar'
p10
sS'lib'
p11
(dp12
sS'unicodes'
p13
(tsS'width'
p14
I1221
sS'contours'
p15
(tsS'components'
p16
(tsS'anchors'
p17
(tsssS'org.robofab.postScriptHintData'
p18
(dp19
s."
LayerCount: 2
Fore
SplineSet
279 10 m 257
 279 -156 l 257
 320 -156 l 257
 324 10 l 257
 279 10 l 257
286 845 m 257
 283 702 l 257
 328 702 l 257
 328 845 l 257
 286 845 l 257
EndSplineSet
Refer: 94 83 N 1 0 0 1 0 0 2
EndChar

StartChar: dotaccent
Encoding: 402 729 193
Width: 169
VWidth: 0
GlyphClass: 4
Flags: HW
PickledData: "(dp1
S'org.robofab.postScriptHintData'
p2
(dp3
sS'com.typemytype.robofont.layerData'
p4
(dp5
s."
AnchorPoint: "top" 83 528 mark 0
LayerCount: 2
Fore
SplineSet
128 690 m 256
 128 718 113 734 83 734 c 256
 53 734 38 718 38 690 c 256
 38 661 53 646 83 646 c 256
 113 646 128 661 128 690 c 256
EndSplineSet
EndChar

StartChar: dotlessi
Encoding: 240 305 194
Width: 236
VWidth: 0
GlyphClass: 2
Flags: HW
PickledData: "(dp1
S'org.pippin.gimp.org.kernagic'
p2
(dp3
S'lstem'
p4
I0
sS'rstem'
p5
I0
ssS'com.typemytype.robofont.layerData'
p6
(dp7
sS'org.robofab.postScriptHintData'
p8
(dp9
s."
AnchorPoint: "top" 124 528 basechar 0
LayerCount: 2
Fore
SplineSet
92 528 m 257
 92 0 l 257
 151 0 l 257
 151 528 l 257
 92 528 l 257
EndSplineSet
EndChar

StartChar: uni0237
Encoding: 65540 567 195
Width: 256
VWidth: 0
GlyphClass: 2
Flags: HW
PickledData: "(dp1
S'org.pippin.gimp.org.kernagic'
p2
(dp3
S'lstem'
p4
I0
sS'rstem'
p5
I0
ssS'com.fontlab.hintData'
p6
(dp7
S'vhints'
p8
((dp9
S'position'
p10
I111
sS'width'
p11
I142
stp12
sS'hhints'
p13
((dp14
g10
I-479
sg11
I112
stp15
ssS'com.typemytype.robofont.layerData'
p16
(dp17
sS'org.robofab.postScriptHintData'
p18
(dp19
s."
HStem: -234 55
VStem: 54 69
LayerCount: 2
Fore
SplineSet
112 528 m 261
 112 21 l 262
 112 -77 111 -105 37 -111 c 261
 15 -113 l 261
 17 -164 l 261
 44 -163 l 261
 127 -158 171 -124 171 -8 c 262
 171 528 l 261
 112 528 l 261
EndSplineSet
EndChar

StartChar: e
Encoding: 69 101 196
Width: 547
VWidth: 0
GlyphClass: 2
Flags: HW
PickledData: "(dp1
S'org.pippin.gimp.org.kernagic'
p2
(dp3
S'lstem'
p4
I0
sS'rstem'
p5
I747
ssS'com.fontlab.hintData'
p6
(dp7
S'hhints'
p8
((dp9
S'position'
p10
I-19
sS'width'
p11
I94
s(dp12
g10
I982
sg11
I92
stp13
ssS'com.typemytype.robofont.layerData'
p14
(dp15
sS'org.robofab.postScriptHintData'
p16
(dp17
s."
HStem: -9 46 479 45
AnchorPoint: "top" 289 528 basechar 0
LayerCount: 2
Fore
SplineSet
118 301 m 257
 129 415 194 494 298 494 c 256
 396 494 439 425 442 301 c 257
 118 301 l 257
487 261 m 257
 487 261 490 286 490 300 c 256
 490 449 420 539 295 539 c 259
 169 539 58 440 58 262 c 256
 58 96 160 -10 300 -10 c 256
 373 -10 431 11 478 38 c 257
 460 78 l 257
 455 78 l 257
 408 52 363 36 307 36 c 256
 204 36 122 104 116 261 c 257
 487 261 l 257
EndSplineSet
EndChar

StartChar: eight
Encoding: 24 56 204
Width: 594
VWidth: 0
GlyphClass: 2
Flags: HW
PickledData: "(dp1
S'org.pippin.gimp.org.kernagic'
p2
(dp3
S'lstem'
p4
I0
sS'rstem'
p5
I0
ssS'com.typemytype.robofont.layerData'
p6
(dp7
sS'org.robofab.postScriptHintData'
p8
(dp9
s."
LayerCount: 2
Fore
SplineSet
297 392 m 257
 197 413 147 468 147 550 c 256
 147 627 207 673 297 673 c 256
 388 673 446 627 446 550 c 256
 446 468 398 413 297 392 c 257
297 38 m 256
 184 38 125 86 125 179 c 256
 125 273 200 323 297 343 c 257
 395 323 467 268 467 179 c 256
 467 81 414 38 297 38 c 256
297 -10 m 256
 422 -10 521 49 521 173 c 256
 521 267 458 344 357 371 c 257
 445 398 504 455 504 547 c 256
 504 655 423 721 297 721 c 256
 171 721 89 655 89 547 c 256
 89 456 153 392 236 369 c 257
 131 337 73 276 73 172 c 256
 73 48 173 -10 297 -10 c 256
EndSplineSet
EndChar

StartChar: emdash
Encoding: 445 8212 207
Width: 1099
VWidth: 0
GlyphClass: 2
Flags: HW
PickledData: "(dp1
S'org.robofab.postScriptHintData'
p2
(dp3
sS'com.typemytype.robofont.layerData'
p4
(dp5
s."
LayerCount: 2
Fore
SplineSet
29 271 m 257
 1070 271 l 257
 1070 317 l 257
 29 317 l 257
 29 271 l 257
EndSplineSet
EndChar

StartChar: endash
Encoding: 444 8211 208
Width: 648
VWidth: 0
GlyphClass: 2
Flags: HW
PickledData: "(dp1
S'org.pippin.gimp.org.kernagic'
p2
(dp3
S'lstem'
p4
I0
sS'rstem'
p5
I0
ssS'com.typemytype.robofont.layerData'
p6
(dp7
sS'org.robofab.postScriptHintData'
p8
(dp9
s."
LayerCount: 2
Fore
SplineSet
63 273 m 257
 585 273 l 257
 585 324 l 257
 63 324 l 257
 63 273 l 257
EndSplineSet
EndChar

StartChar: eng
Encoding: 266 331 209
Width: 574
VWidth: 0
GlyphClass: 2
Flags: HW
PickledData: "(dp1
S'org.robofab.postScriptHintData'
p2
(dp3
sS'com.typemytype.robofont.layerData'
p4
(dp5
s."
LayerCount: 2
Fore
SplineSet
434 108 m 257
 434 -1 l 257
 434 -116 414 -153 242 -153 c 257
 246 -199 l 257
 454 -199 493 -141 493 -8 c 258
 493 108 l 257
 434 108 l 257
EndSplineSet
Refer: 277 110 N 1 0 0 1 0 0 2
EndChar

StartChar: equal
Encoding: 29 61 211
Width: 516
VWidth: 0
GlyphClass: 2
Flags: HW
PickledData: "(dp1
S'org.pippin.gimp.org.kernagic'
p2
(dp3
S'lstem'
p4
I0
sS'rstem'
p5
I0
ssS'com.typemytype.robofont.layerData'
p6
(dp7
S'b'
(dp8
S'name'
p9
S'equal'
p10
sS'lib'
p11
(dp12
sS'unicodes'
p13
(tsS'width'
p14
I1050
sS'contours'
p15
(tsS'components'
p16
(tsS'anchors'
p17
(tsssS'org.robofab.postScriptHintData'
p18
(dp19
s."
LayerCount: 2
Fore
SplineSet
64 271 m 257
 64 222 l 257
 454 222 l 257
 454 271 l 257
 64 271 l 257
64 458 m 257
 64 409 l 257
 454 409 l 257
 454 458 l 257
 64 458 l 257
EndSplineSet
EndChar

StartChar: estimated
Encoding: 465 8494 212
Width: 414
VWidth: 0
GlyphClass: 2
Flags: HW
PickledData: "(dp1
S'org.robofab.postScriptHintData'
p2
(dp3
sS'com.typemytype.robofont.layerData'
p4
(dp5
S'b'
(dp6
S'name'
p7
S'estimated'
p8
sS'lib'
p9
(dp10
sS'unicodes'
p11
(tsS'width'
p12
I1223
sS'contours'
p13
(tsS'components'
p14
(tsS'anchors'
p15
(tsss."
LayerCount: 2
Fore
SplineSet
426 249 m 257
 141 249 l 257
 147 357 209 431 281 431 c 256
 368 431 426 346 426 249 c 257
49 224 m 256
 49 91 127 -9 286 -9 c 256
 372 -9 427 28 469 77 c 257
 448 98 l 257
 407 55 361 21 286 21 c 256
 191 21 140 100 140 215 c 257
 473 215 l 257
 473 359 411 456 279 456 c 256
 145 456 49 356 49 224 c 256
EndSplineSet
EndChar

StartChar: eth
Encoding: 175 240 213
Width: 638
VWidth: 0
GlyphClass: 2
Flags: HW
PickledData: "(dp1
S'org.pippin.gimp.org.kernagic'
p2
(dp3
S'lstem'
p4
I0
sS'rstem'
p5
I0
ssS'com.typemytype.robofont.layerData'
p6
(dp7
sS'org.robofab.postScriptHintData'
p8
(dp9
s."
LayerCount: 2
Fore
SplineSet
496 244 m 256
 496 116 436 31 314 31 c 256
 189 31 133 136 133 236 c 256
 133 345 199 431 311 431 c 256
 431 431 496 335 496 244 c 256
138 787 m 257
 248 687 l 257
 127 641 l 257
 146 603 l 257
 275 652 l 257
 395 536 448 457 474 396 c 257
 448 422 405 477 310 477 c 256
 174 477 73 380 73 237 c 256
 73 112 148 -13 311 -13 c 256
 478 -13 550 104 550 241 c 256
 550 306 535 377 512 425 c 256
 482 487 434 554 322 671 c 257
 458 722 l 257
 438 759 l 257
 290 703 l 257
 204 787 l 257
 138 787 l 257
EndSplineSet
EndChar

StartChar: exclam
Encoding: 1 33 214
Width: 290
VWidth: 0
GlyphClass: 2
Flags: HW
PickledData: "(dp1
S'org.pippin.gimp.org.kernagic'
p2
(dp3
S'lstem'
p4
I0
sS'rstem'
p5
I0
ssS'com.typemytype.robofont.layerData'
p6
(dp7
sS'org.robofab.postScriptHintData'
p8
(dp9
s."
LayerCount: 2
Fore
SplineSet
144 -7 m 256
 182 -7 192 18 192 41 c 256
 192 63 182 89 144 89 c 256
 106 89 96 63 96 41 c 256
 96 19 106 -7 144 -7 c 256
131 202 m 257
 152 202 l 257
 176 679 l 257
 176 718 l 257
 105 718 l 257
 105 679 l 257
 131 202 l 257
EndSplineSet
EndChar

StartChar: f
Encoding: 70 102 216
Width: 360
VWidth: 0
GlyphClass: 2
Flags: HW
PickledData: "(dp1
S'org.pippin.gimp.org.kernagic'
p2
(dp3
S'lstem'
p4
I182
sS'rstem'
p5
I417
ssS'com.fontlab.hintData'
p6
(dp7
S'vhints'
p8
((dp9
S'position'
p10
I269
sS'width'
p11
I166
stp12
sS'hhints'
p13
((dp14
g10
I952
sg11
I89
s(dp15
g10
I1358
sg11
I122
stp16
ssS'com.typemytype.robofont.layerData'
p17
(dp18
sS'org.robofab.postScriptHintData'
p19
(dp20
s."
HStem: 465 43 663 60
VStem: 131 81
AnchorPoint: "top" 204 710 basechar 0
LayerCount: 2
Fore
SplineSet
198 528 m 257
 198 571 l 258
 198 680 225 696 286 696 c 256
 307 696 338 692 338 692 c 257
 342 732 l 257
 342 732 314 739 275 739 c 258
 274 739 l 258
 185 739 139 700 139 570 c 258
 139 527 l 257
 39 520 l 257
 36 494 l 257
 139 494 l 257
 139 0 l 257
 198 0 l 257
 198 494 l 257
 325 494 l 257
 325 528 l 257
 198 528 l 257
EndSplineSet
EndChar

StartChar: five
Encoding: 21 53 217
Width: 594
VWidth: 0
GlyphClass: 2
Flags: HW
PickledData: "(dp1
S'org.pippin.gimp.org.kernagic'
p2
(dp3
S'lstem'
p4
I0
sS'rstem'
p5
I0
ssS'com.typemytype.robofont.layerData'
p6
(dp7
sS'org.robofab.postScriptHintData'
p8
(dp9
s."
LayerCount: 2
Fore
SplineSet
310 399 m 256
 425 399 469 314 469 226 c 256
 469 112 388 40 279 40 c 256
 220 40 169 57 116 100 c 257
 110 100 l 257
 83 64 l 257
 136 20 204 -10 281 -10 c 256
 425 -10 531 83 531 229 c 256
 531 341 459 446 311 446 c 256
 252 446 211 429 169 397 c 257
 191 664 l 257
 487 664 l 257
 493 711 l 257
 141 711 l 257
 117 348 l 257
 170 342 l 257
 201 377 255 399 310 399 c 256
EndSplineSet
EndChar

StartChar: florin
Encoding: 318 402 219
Width: 463
VWidth: 0
GlyphClass: 2
Flags: HW
PickledData: "(dp1
S'org.robofab.postScriptHintData'
p2
(dp3
s."
LayerCount: 2
Fore
SplineSet
247 583 m 258
 221 449 l 257
 142 449 l 257
 136 417 l 257
 216 417 l 257
 139 69 l 258
 123 -4 125 -75 40 -75 c 256
 27 -75 12 -73 -5 -70 c 257
 -12 -100 l 257
 8 -105 27 -107 44 -107 c 256
 122 -107 170 -54 196 68 c 258
 272 417 l 257
 389 417 l 257
 396 449 l 257
 279 449 l 257
 304 583 l 257
 317 651 338 690 386 690 c 256
 423 690 442 666 442 612 c 257
 487 612 l 257
 487 699 440 726 385 726 c 256
 305 726 265 675 247 583 c 258
EndSplineSet
EndChar

StartChar: foundryicon
Encoding: 488 -1 220
Width: 657
VWidth: 0
GlyphClass: 2
Flags: HW
PickledData: "(dp1
S'org.robofab.postScriptHintData'
p2
(dp3
s."
LayerCount: 2
Fore
SplineSet
137 1 m 257
 327 136 l 257
 521 1 l 257
 450 225 l 257
 641 369 l 257
 404 369 l 257
 327 593 l 257
 253 369 l 257
 17 369 l 257
 207 225 l 257
 137 1 l 257
237 198 m 257
 237 328 l 257
 289 328 l 257
 372 255 l 257
 372 328 l 257
 423 328 l 257
 423 198 l 257
 372 198 l 257
 289 270 l 257
 289 198 l 257
 237 198 l 257
EndSplineSet
EndChar

StartChar: four
Encoding: 20 52 221
Width: 594
VWidth: 0
GlyphClass: 2
Flags: HW
PickledData: "(dp1
S'org.pippin.gimp.org.kernagic'
p2
(dp3
S'lstem'
p4
I0
sS'rstem'
p5
I0
ssS'com.typemytype.robofont.layerData'
p6
(dp7
sS'org.robofab.postScriptHintData'
p8
(dp9
s."
LayerCount: 2
Fore
SplineSet
125 241 m 257
 396 628 l 257
 396 241 l 257
 125 241 l 257
397 0 m 257
 452 0 l 257
 452 193 l 257
 534 193 l 257
 539 240 l 257
 452 240 l 257
 452 711 l 257
 402 711 l 257
 65 251 l 257
 75 193 l 257
 397 193 l 257
 397 0 l 257
EndSplineSet
EndChar

StartChar: fraction
Encoding: 459 8260 222
Width: 557
VWidth: 0
GlyphClass: 2
Flags: HW
PickledData: "(dp1
S'org.robofab.postScriptHintData'
p2
(dp3
s."
LayerCount: 2
Fore
SplineSet
85 0 m 257
 138 0 l 257
 468 746 l 257
 418 746 l 257
 85 0 l 257
EndSplineSet
EndChar

StartChar: g
Encoding: 71 103 223
Width: 604
VWidth: 0
GlyphClass: 2
Flags: HW
PickledData: "(dp1
S'org.pippin.gimp.org.kernagic'
p2
(dp3
S'lstem'
p4
I0
sS'rstem'
p5
I0
ssS'com.fontlab.hintData'
p6
(dp7
S'vhints'
p8
((dp9
S'position'
p10
I128
sS'width'
p11
I122
s(dp12
g10
I977
sg11
I125
s(dp13
g10
I977
sg11
I36
stp14
sS'hhints'
p15
((dp16
g10
I-426
sg11
I101
s(dp17
g10
I0
sg11
I93
s(dp18
g10
I982
sg11
I92
stp19
ssS'com.typemytype.robofont.layerData'
p20
(dp21
sS'org.robofab.postScriptHintData'
p22
(dp23
s."
HStem: -208 49 0 45 479 45
VStem: 62 60 477 61 477 18
AnchorPoint: "top" 299 528 basechar 0
LayerCount: 2
Fore
SplineSet
291 41 m 256
 165 41 118 157 118 264 c 256
 118 375 165 494 291 494 c 256
 395 494 439 433 462 388 c 257
 462 139 l 257
 441 102 396 41 291 41 c 256
277 -225 m 256
 465 -225 520 -130 520 35 c 258
 520 528 l 257
 468 528 l 257
 464 454 l 257
 433 502 378 539 296 539 c 256
 122 539 58 401 58 263 c 256
 58 131 125 -4 291 -4 c 258
 292 -4 l 258
 371 -4 429 31 463 79 c 257
 463 23 l 258
 463 -125 408 -178 273 -178 c 256
 225 -178 169 -167 140 -155 c 257
 132 -155 l 257
 129 -202 l 257
 157 -212 215 -225 277 -225 c 256
EndSplineSet
EndChar

StartChar: germandbls
Encoding: 158 223 229
Width: 596
VWidth: 0
GlyphClass: 2
Flags: HW
PickledData: "(dp1
S'org.pippin.gimp.org.kernagic'
p2
(dp3
S'lstem'
p4
I0
sS'rstem'
p5
I0
ssS'com.typemytype.robofont.layerData'
p6
(dp7
S'b'
(dp8
S'name'
p9
S'germandbls'
p10
sS'lib'
p11
(dp12
sS'unicodes'
p13
(tsS'width'
p14
I1278
sS'contours'
p15
(tsS'components'
p16
(tsS'anchors'
p17
(tsssS'org.robofab.postScriptHintData'
p18
(dp19
s."
LayerCount: 2
Fore
SplineSet
398 -9 m 256
 492 -9 547 50 547 137 c 256
 547 278 353 318 353 379 c 256
 353 428 463 497 463 594 c 256
 463 677 405 742 296 742 c 256
 150 742 93 656 93 513 c 258
 93 0 l 257
 152 0 l 257
 152 517 l 258
 152 650 199 696 296 696 c 256
 370 696 403 654 403 596 c 256
 403 487 301 456 301 375 c 256
 301 277 491 243 491 133 c 256
 491 92 468 40 396 40 c 256
 334 40 280 61 250 77 c 257
 232 30 l 257
 262 12 330 -9 398 -9 c 256
EndSplineSet
EndChar

StartChar: grave
Encoding: 64 96 230
Width: 411
VWidth: 0
GlyphClass: 4
Flags: HW
PickledData: "(dp1
S'org.robofab.postScriptHintData'
p2
(dp3
sS'com.typemytype.robofont.layerData'
p4
(dp5
s."
AnchorPoint: "top" 208 516 mark 0
LayerCount: 2
Fore
SplineSet
192 591 m 257
 229 591 l 257
 127 766 l 257
 51 766 l 257
 192 591 l 257
EndSplineSet
EndChar

StartChar: greater
Encoding: 30 62 231
Width: 580
VWidth: 0
GlyphClass: 2
Flags: HW
PickledData: "(dp1
S'org.pippin.gimp.org.kernagic'
p2
(dp3
S'lstem'
p4
I0
sS'rstem'
p5
I0
ssS'com.typemytype.robofont.layerData'
p6
(dp7
S'b'
(dp8
S'name'
p9
S'greater'
p10
sS'lib'
p11
(dp12
sS'unicodes'
p13
(tsS'width'
p14
I1107
sS'contours'
p15
(tsS'components'
p16
(tsS'anchors'
p17
(tsssS'org.robofab.postScriptHintData'
p18
(dp19
s."
LayerCount: 2
Fore
SplineSet
63 500 m 257
 453 296 l 257
 62 113 l 257
 62 61 l 257
 519 276 l 257
 519 312 l 257
 63 553 l 257
 63 500 l 257
EndSplineSet
EndChar

StartChar: greaterequal
Encoding: 480 8805 232
Width: 598
VWidth: 0
GlyphClass: 2
Flags: HW
PickledData: "(dp1
S'org.pippin.gimp.org.kernagic'
p2
(dp3
S'lstem'
p4
I0
sS'rstem'
p5
I0
ssS'com.typemytype.robofont.layerData'
p6
(dp7
S'b'
(dp8
S'name'
p9
S'greaterequal'
p10
sS'lib'
p11
(dp12
sS'unicodes'
p13
(tsS'width'
p14
I1192
sS'contours'
p15
(tsS'components'
p16
(tsS'anchors'
p17
(tsssS'org.robofab.postScriptHintData'
p18
(dp19
s."
LayerCount: 2
Fore
SplineSet
62 5 m 257
 526 5 l 257
 526 57 l 257
 62 56 l 257
 62 5 l 257
82 119 m 257
 513 355 l 257
 513 385 l 257
 84 638 l 257
 84 586 l 257
 471 370 l 257
 82 169 l 257
 82 119 l 257
EndSplineSet
EndChar

StartChar: guillemotleft
Encoding: 106 171 233
Width: 490
VWidth: 0
GlyphClass: 2
Flags: HW
PickledData: "(dp1
S'org.pippin.gimp.org.kernagic'
p2
(dp3
S'lstem'
p4
I0
sS'rstem'
p5
I0
ssS'com.typemytype.robofont.layerData'
p6
(dp7
S'b'
(dp8
S'name'
p9
S'guillemotleft'
p10
sS'lib'
p11
(dp12
sS'unicodes'
p13
(tsS'width'
p14
I994
sS'contours'
p15
(tsS'components'
p16
(tsS'anchors'
p17
(tsssS'org.robofab.postScriptHintData'
p18
(dp19
s."
LayerCount: 2
Fore
SplineSet
354 77 m 257
 399 81 l 257
 270 266 l 257
 403 449 l 257
 355 453 l 257
 219 265 l 257
 354 77 l 257
193 77 m 257
 239 81 l 257
 110 266 l 257
 243 449 l 257
 195 453 l 257
 59 265 l 257
 193 77 l 257
EndSplineSet
EndChar

StartChar: guillemotright
Encoding: 122 187 234
Width: 476
VWidth: 0
GlyphClass: 2
Flags: HW
PickledData: "(dp1
S'org.pippin.gimp.org.kernagic'
p2
(dp3
S'lstem'
p4
I0
sS'rstem'
p5
I0
ssS'com.typemytype.robofont.layerData'
p6
(dp7
sS'org.robofab.postScriptHintData'
p8
(dp9
s."
LayerCount: 2
Fore
SplineSet
277 77 m 257
 412 265 l 257
 277 453 l 257
 230 450 l 257
 361 264 l 257
 230 81 l 257
 277 77 l 257
117 77 m 257
 252 265 l 257
 117 453 l 257
 70 450 l 257
 201 264 l 257
 69 81 l 257
 117 77 l 257
EndSplineSet
EndChar

StartChar: guilsinglleft
Encoding: 457 8249 235
Width: 311
VWidth: 0
GlyphClass: 2
Flags: HW
PickledData: "(dp1
S'org.robofab.postScriptHintData'
p2
(dp3
s."
LayerCount: 2
Fore
SplineSet
205 69 m 257
 257 69 l 257
 111 273 l 257
 260 481 l 257
 207 481 l 257
 56 273 l 257
 205 69 l 257
EndSplineSet
EndChar

StartChar: guilsinglright
Encoding: 458 8250 236
Width: 347
VWidth: 0
GlyphClass: 2
Flags: HW
PickledData: "(dp1
S'org.pippin.gimp.org.kernagic'
p2
(dp3
S'lstem'
p4
I0
sS'rstem'
p5
I0
ssS'com.typemytype.robofont.layerData'
p6
(dp7
S'b'
(dp8
S'name'
p9
S'guilsinglright'
p10
sS'lib'
p11
(dp12
sS'unicodes'
p13
(tsS'width'
p14
I766
sS'contours'
p15
(tsS'components'
p16
(tsS'anchors'
p17
(tsssS'org.robofab.postScriptHintData'
p18
(dp19
s."
LayerCount: 2
Fore
SplineSet
78 69 m 257
 131 69 l 257
 283 281 l 257
 131 491 l 257
 78 491 l 257
 225 281 l 257
 78 69 l 257
EndSplineSet
EndChar

StartChar: h
Encoding: 72 104 237
Width: 581
VWidth: 0
GlyphClass: 2
Flags: HW
PickledData: "(dp1
S'org.pippin.gimp.org.kernagic'
p2
(dp3
S'lstem'
p4
I0
sS'rstem'
p5
I0
ssS'com.fontlab.hintData'
p6
(dp7
S'vhints'
p8
((dp9
S'position'
p10
I193
sS'width'
p11
I122
s(dp12
g10
I910
sg11
I122
stp13
sS'hhints'
p14
((dp15
g10
I982
sg11
I92
stp16
ssS'com.typemytype.robofont.layerData'
p17
(dp18
sS'org.robofab.postScriptHintData'
p19
(dp20
s."
HStem: 479 45
VStem: 94 60 444 60
AnchorPoint: "top" 300 645 basechar 0
LayerCount: 2
Fore
SplineSet
88 0 m 257
 147 0 l 257
 147 308 l 258
 147 392 184 494 320 494 c 256
 408 494 440 437 440 329 c 258
 440 0 l 257
 500 0 l 257
 500 328 l 258
 500 458 444 539 329 539 c 256
 249 539 182 510 145 436 c 257
 147 553 l 257
 147 762 l 257
 88 752 l 257
 88 0 l 257
EndSplineSet
EndChar

StartChar: hungarumlaut
Encoding: 406 733 240
Width: 349
VWidth: 0
GlyphClass: 4
Flags: HW
PickledData: "(dp1
S'org.robofab.postScriptHintData'
p2
(dp3
sS'com.typemytype.robofont.layerData'
p4
(dp5
s."
AnchorPoint: "top" 153 516 mark 0
LayerCount: 2
Fore
SplineSet
194 606 m 257
 231 606 l 257
 326 762 l 257
 268 762 l 257
 194 606 l 257
86 606 m 257
 123 606 l 257
 195 762 l 257
 144 762 l 257
 86 606 l 257
EndSplineSet
EndChar

StartChar: hyphen
Encoding: 13 45 241
Width: 402
VWidth: 0
GlyphClass: 4
Flags: HW
PickledData: "(dp1
S'org.pippin.gimp.org.kernagic'
p2
(dp3
S'lstem'
p4
I0
sS'rstem'
p5
I0
ssS'com.typemytype.robofont.layerData'
p6
(dp7
sS'org.robofab.postScriptHintData'
p8
(dp9
s."
LayerCount: 2
Fore
SplineSet
75 261 m 257
 317 261 l 257
 317 308 l 257
 75 308 l 257
 75 261 l 257
EndSplineSet
EndChar

StartChar: i
Encoding: 73 105 242
Width: 249
VWidth: 0
GlyphClass: 2
Flags: HW
PickledData: "(dp1
S'org.robofab.postScriptHintData'
p2
(dp3
sS'com.typemytype.robofont.layerData'
p4
(dp5
s."
LayerCount: 2
Fore
SplineSet
176 690 m 256
 176 718 162 734 132 734 c 256
 102 734 86 718 86 690 c 256
 86 661 102 646 132 646 c 256
 162 646 176 661 176 690 c 256
101 528 m 257
 101 0 l 257
 160 0 l 257
 160 528 l 257
 101 528 l 257
EndSplineSet
EndChar

StartChar: infinity
Encoding: 475 8734 253
Width: 830
VWidth: 0
GlyphClass: 2
Flags: HW
PickledData: "(dp1
S'org.pippin.gimp.org.kernagic'
p2
(dp3
S'lstem'
p4
I0
sS'rstem'
p5
I0
ssS'com.typemytype.robofont.layerData'
p6
(dp7
S'b'
(dp8
S'name'
p9
S'infinity'
p10
sS'lib'
p11
(dp12
sS'unicodes'
p13
(tsS'width'
p14
I1647
sS'contours'
p15
(tsS'components'
p16
(tsS'anchors'
p17
(tsssS'org.robofab.postScriptHintData'
p18
(dp19
s."
LayerCount: 2
Fore
SplineSet
732 318 m 256
 732 233 688 172 613 172 c 256
 556 172 506 214 438 310 c 257
 492 392 544 438 611 438 c 256
 683 438 732 387 732 318 c 256
392 302 m 257
 336 218 283 172 218 172 c 256
 142 172 90 230 90 306 c 256
 90 382 139 438 214 438 c 256
 283 438 337 392 392 302 c 257
414 345 m 257
 344 439 286 485 215 485 c 256
 117 485 46 414 46 315 c 256
 46 207 113 127 217 127 c 256
 289 127 348 173 417 264 c 257
 488 168 545 127 612 127 c 256
 711 127 781 200 781 307 c 256
 781 412 717 485 613 485 c 256
 539 485 481 438 414 345 c 257
EndSplineSet
EndChar

StartChar: integral
Encoding: 476 8747 254
Width: 404
VWidth: 0
GlyphClass: 2
Flags: HW
PickledData: "(dp1
S'org.pippin.gimp.org.kernagic'
p2
(dp3
S'lstem'
p4
I0
sS'rstem'
p5
I0
ssS'com.typemytype.robofont.layerData'
p6
(dp7
S'b'
(dp8
S'name'
p9
S'integral'
p10
sS'lib'
p11
(dp12
sS'unicodes'
p13
(tsS'width'
p14
I994
sS'contours'
p15
(tsS'components'
p16
(tsS'anchors'
p17
(tsssS'org.robofab.postScriptHintData'
p18
(dp19
s."
LayerCount: 2
Fore
SplineSet
197 558 m 258
 197 -22 l 258
 197 -108 185 -162 118 -162 c 256
 105 -162 89 -160 71 -156 c 257
 71 -194 l 257
 91 -198 109 -201 125 -201 c 256
 213 -201 245 -137 245 -18 c 258
 245 556 l 258
 245 651 256 689 313 689 c 256
 326 689 341 687 359 682 c 257
 359 720 l 257
 338 725 319 727 302 727 c 256
 224 727 197 674 197 558 c 258
EndSplineSet
EndChar

StartChar: j
Encoding: 74 106 257
Width: 255
VWidth: 0
GlyphClass: 2
Flags: HW
PickledData: "(dp1
S'org.robofab.postScriptHintData'
p2
(dp3
sS'com.typemytype.robofont.layerData'
p4
(dp5
s."
LayerCount: 2
Fore
SplineSet
184 690 m 256
 184 718 169 734 139 734 c 256
 109 734 94 718 94 690 c 256
 94 661 109 646 139 646 c 256
 169 646 184 661 184 690 c 256
112 528 m 261
 112 21 l 262
 112 -77 111 -105 37 -111 c 261
 14 -113 l 261
 16 -164 l 261
 44 -163 l 261
 127 -158 171 -124 171 -8 c 262
 171 528 l 261
 112 528 l 261
EndSplineSet
EndChar

StartChar: k
Encoding: 75 107 259
Width: 520
VWidth: 0
GlyphClass: 2
Flags: HW
PickledData: "(dp1
S'org.pippin.gimp.org.kernagic'
p2
(dp3
S'lstem'
p4
I0
sS'rstem'
p5
I671
ssS'com.typemytype.robofont.layerData'
p6
(dp7
sS'org.robofab.postScriptHintData'
p8
(dp9
s."
LayerCount: 2
Fore
SplineSet
89 0 m 257
 148 0 l 257
 148 193 l 257
 214 251 l 257
 439 0 l 257
 504 0 l 257
 504 6 l 257
 252 282 l 257
 497 522 l 257
 497 528 l 257
 431 528 l 257
 145 247 l 257
 148 350 l 257
 148 762 l 257
 89 752 l 257
 89 0 l 257
EndSplineSet
EndChar

StartChar: kgreenlandic
Encoding: 247 312 261
Width: 520
VWidth: 0
GlyphClass: 2
Flags: HW
PickledData: "(dp1
S'org.robofab.postScriptHintData'
p2
(dp3
s."
LayerCount: 2
Fore
SplineSet
85 0 m 257
 145 0 l 257
 145 196 l 257
 211 254 l 257
 436 0 l 257
 499 0 l 257
 499 8 l 257
 249 285 l 257
 491 520 l 257
 491 528 l 257
 428 528 l 257
 142 250 l 257
 145 353 l 257
 145 528 l 257
 85 528 l 257
 85 0 l 257
EndSplineSet
EndChar

StartChar: l
Encoding: 76 108 262
Width: 292
VWidth: 0
GlyphClass: 2
Flags: HW
PickledData: "(dp1
S'org.pippin.gimp.org.kernagic'
p2
(dp3
S'lstem'
p4
I0
sS'rstem'
p5
I238
ssS'com.fontlab.hintData'
p6
(dp7
S'vhints'
p8
((dp9
S'position'
p10
I193
sS'width'
p11
I122
stp12
sS'hhints'
p13
((dp14
g10
I-11
sg11
I87
stp15
ssS'com.typemytype.robofont.layerData'
p16
(dp17
sS'org.robofab.postScriptHintData'
p18
(dp19
s."
HStem: -5 42
VStem: 94 60
AnchorPoint: "top" 168 719 basechar 0
LayerCount: 2
Fore
SplineSet
215 -4 m 256
 233 -4 261 -3 268 -3 c 257
 271 40 l 257
 268 39 242 39 226 39 c 256
 164 40 149 64 149 131 c 258
 149 762 l 257
 90 752 l 257
 90 130 l 258
 90 15 151 -4 215 -4 c 256
EndSplineSet
EndChar

StartChar: less
Encoding: 28 60 267
Width: 576
VWidth: 0
GlyphClass: 2
Flags: HW
PickledData: "(dp1
S'org.pippin.gimp.org.kernagic'
p2
(dp3
S'lstem'
p4
I0
sS'rstem'
p5
I0
ssS'com.typemytype.robofont.layerData'
p6
(dp7
S'b'
(dp8
S'name'
p9
S'less'
p10
sS'lib'
p11
(dp12
sS'unicodes'
p13
(tsS'width'
p14
I1107
sS'contours'
p15
(tsS'components'
p16
(tsS'anchors'
p17
(tsssS'org.robofab.postScriptHintData'
p18
(dp19
s."
LayerCount: 2
Fore
SplineSet
505 57 m 257
 506 109 l 257
 110 296 l 257
 507 495 l 257
 507 549 l 257
 50 312 l 257
 50 277 l 257
 505 57 l 257
EndSplineSet
EndChar

StartChar: lessequal
Encoding: 479 8804 268
Width: 600
VWidth: 0
GlyphClass: 2
Flags: HW
PickledData: "(dp1
S'org.robofab.postScriptHintData'
p2
(dp3
sS'com.typemytype.robofont.layerData'
p4
(dp5
s."
LayerCount: 2
Fore
SplineSet
61 1 m 257
 527 1 l 257
 527 50 l 257
 61 50 l 257
 61 1 l 257
508 113 m 257
 508 164 l 257
 150 368 l 257
 507 583 l 257
 507 637 l 257
 81 383 l 257
 81 352 l 257
 508 113 l 257
EndSplineSet
EndChar

StartChar: logicalnot
Encoding: 107 172 269
Width: 601
VWidth: 0
GlyphClass: 2
Flags: HW
PickledData: "(dp1
S'org.pippin.gimp.org.kernagic'
p2
(dp3
S'lstem'
p4
I0
sS'rstem'
p5
I0
ssS'com.typemytype.robofont.layerData'
p6
(dp7
sS'org.robofab.postScriptHintData'
p8
(dp9
s."
LayerCount: 2
Fore
SplineSet
53 385 m 257
 53 339 l 257
 476 339 l 257
 476 126 l 257
 518 126 l 257
 518 385 l 257
 53 385 l 257
EndSplineSet
EndChar

StartChar: lozenge
Encoding: 481 9674 270
Width: 576
VWidth: 0
GlyphClass: 2
Flags: HW
PickledData: "(dp1
S'org.pippin.gimp.org.kernagic'
p2
(dp3
S'lstem'
p4
I0
sS'rstem'
p5
I0
ssS'com.typemytype.robofont.layerData'
p6
(dp7
S'b'
(dp8
S'name'
p9
S'lozenge'
p10
sS'lib'
p11
(dp12
sS'unicodes'
p13
(tsS'width'
p14
I1164
sS'contours'
p15
(tsS'components'
p16
(tsS'anchors'
p17
(tsssS'org.robofab.postScriptHintData'
p18
(dp19
s."
LayerCount: 2
Fore
SplineSet
456 378 m 257
 280 34 l 257
 108 379 l 257
 285 721 l 257
 456 378 l 257
262 780 m 257
 54 378 l 257
 259 -21 l 257
 301 -21 l 257
 509 380 l 257
 305 780 l 257
 262 780 l 257
EndSplineSet
EndChar

StartChar: m
Encoding: 77 109 272
Width: 876
VWidth: 0
GlyphClass: 2
Flags: HW
PickledData: "(dp1
S'org.pippin.gimp.org.kernagic'
p2
(dp3
S'lstem'
p4
I0
sS'rstem'
p5
I0
ssS'com.fontlab.hintData'
p6
(dp7
S'vhints'
p8
((dp9
S'position'
p10
I193
sS'width'
p11
I122
s(dp12
g10
I193
sg11
I98
s(dp13
g10
I845
sg11
I122
s(dp14
g10
I1483
sg11
I122
stp15
sS'hhints'
p16
((dp17
g10
I982
sg11
I92
stp18
ssS'com.typemytype.robofont.layerData'
p19
(dp20
sS'org.robofab.postScriptHintData'
p21
(dp22
s."
HStem: 479 45
VStem: 94 60 94 48 413 60 724 60
AnchorPoint: "top" 458 528 basechar 0
LayerCount: 2
Fore
SplineSet
471 310 m 258
 471 411 526 494 631 494 c 256
 721 494 737 422 737 335 c 258
 737 0 l 257
 795 0 l 257
 795 330 l 258
 795 472 747 539 636 539 c 256
 557 539 490 502 459 417 c 257
 440 492 392 539 311 539 c 256
 238 539 180 506 144 433 c 257
 137 528 l 257
 88 528 l 257
 88 0 l 257
 147 0 l 257
 147 322 l 257
 152 409 196 494 306 494 c 256
 390 494 413 435 413 328 c 258
 413 0 l 257
 471 0 l 257
 471 310 l 258
EndSplineSet
EndChar

StartChar: macron
Encoding: 110 175 273
Width: 588
VWidth: 0
GlyphClass: 4
Flags: HW
PickledData: "(dp1
S'org.robofab.postScriptHintData'
p2
(dp3
sS'com.typemytype.robofont.layerData'
p4
(dp5
s."
AnchorPoint: "top" 294 516 mark 0
LayerCount: 2
Fore
SplineSet
160 665 m 257
 408 665 l 257
 408 699 l 257
 160 699 l 257
 160 665 l 257
EndSplineSet
EndChar

StartChar: minus
Encoding: 471 8722 275
Width: 544
VWidth: 0
GlyphClass: 2
Flags: HW
PickledData: "(dp1
S'org.pippin.gimp.org.kernagic'
p2
(dp3
S'lstem'
p4
I0
sS'rstem'
p5
I0
ssS'com.typemytype.robofont.layerData'
p6
(dp7
sS'org.robofab.postScriptHintData'
p8
(dp9
s."
LayerCount: 2
Fore
SplineSet
39 329 m 257
 39 275 l 257
 498 275 l 257
 498 329 l 257
 39 329 l 257
EndSplineSet
EndChar

StartChar: multiply
Encoding: 150 215 276
Width: 380
VWidth: 0
GlyphClass: 2
Flags: HW
PickledData: "(dp1
S'org.pippin.gimp.org.kernagic'
p2
(dp3
S'lstem'
p4
I0
sS'rstem'
p5
I0
ssS'com.typemytype.robofont.layerData'
p6
(dp7
sS'org.robofab.postScriptHintData'
p8
(dp9
s."
LayerCount: 2
Fore
SplineSet
32 442 m 257
 162 300 l 257
 25 151 l 257
 55 123 l 257
 191 268 l 257
 325 123 l 257
 353 153 l 257
 220 300 l 257
 351 439 l 257
 319 471 l 257
 191 332 l 257
 62 474 l 257
 32 442 l 257
EndSplineSet
EndChar

StartChar: n
Encoding: 78 110 277
Width: 574
VWidth: 0
GlyphClass: 2
Flags: HW
PickledData: "(dp1
S'org.pippin.gimp.org.kernagic'
p2
(dp3
S'lstem'
p4
I0
sS'rstem'
p5
I0
ssS'com.fontlab.hintData'
p6
(dp7
S'vhints'
p8
((dp9
S'position'
p10
I193
sS'width'
p11
I122
s(dp12
g10
I903
sg11
I122
stp13
sS'hhints'
p14
((dp15
g10
I0
sg11
I22
s(dp16
g10
I982
sg11
I92
s(dp17
g10
I1034
sg11
I21
stp18
ssS'com.typemytype.robofont.layerData'
p19
(dp20
sS'org.robofab.postScriptHintData'
p21
(dp22
s."
HStem: 0 11 479 45 505 10
VStem: 94 60 441 60
AnchorPoint: "top" 323 528 basechar 0
LayerCount: 2
Fore
SplineSet
88 0 m 257
 147 0 l 257
 147 316 l 258
 147 404 185 494 317 494 c 256
 408 494 434 432 434 339 c 258
 434 0 l 257
 493 0 l 257
 493 321 l 258
 493 468 441 539 323 539 c 256
 232 539 174 502 144 434 c 257
 137 528 l 257
 88 528 l 257
 88 0 l 257
EndSplineSet
EndChar

StartChar: nine
Encoding: 25 57 282
Width: 594
VWidth: 0
GlyphClass: 2
Flags: HW
PickledData: "(dp1
S'org.pippin.gimp.org.kernagic'
p2
(dp3
S'lstem'
p4
I0
sS'rstem'
p5
I0
ssS'com.typemytype.robofont.layerData'
p6
(dp7
sS'org.robofab.postScriptHintData'
p8
(dp9
s."
LayerCount: 2
Fore
SplineSet
477 504 m 256
 477 367 361 339 305 339 c 256
 203 339 144 410 144 502 c 256
 144 590 203 673 311 673 c 256
 420 673 477 591 477 504 c 256
175 0 m 257
 238 0 l 257
 405 218 l 258
 481 318 530 388 530 499 c 256
 530 608 458 721 311 721 c 256
 172 721 89 620 89 501 c 256
 89 374 186 290 293 290 c 256
 337 290 385 303 421 326 c 257
 340 219 257 112 175 6 c 257
 175 0 l 257
EndSplineSet
EndChar

StartChar: notequal
Encoding: 478 8800 283
Width: 551
VWidth: 0
GlyphClass: 2
Flags: HW
PickledData: "(dp1
S'org.pippin.gimp.org.kernagic'
p2
(dp3
S'lstem'
p4
I0
sS'rstem'
p5
I0
ssS'com.typemytype.robofont.layerData'
p6
(dp7
S'b'
(dp8
S'name'
p9
S'notequal'
p10
sS'lib'
p11
(dp12
sS'unicodes'
p13
(tsS'width'
p14
I1079
sS'contours'
p15
(tsS'components'
p16
(tsS'anchors'
p17
(tsssS'org.robofab.postScriptHintData'
p18
(dp19
s."
LayerCount: 2
Fore
SplineSet
141 25 m 257
 221 180 l 257
 488 180 l 257
 487 223 l 257
 240 223 l 257
 334 397 l 257
 488 397 l 257
 485 439 l 257
 352 439 l 257
 425 588 l 257
 387 590 l 257
 308 439 l 257
 47 439 l 257
 50 397 l 257
 289 397 l 257
 198 223 l 257
 47 223 l 257
 50 180 l 257
 175 180 l 257
 102 28 l 257
 141 25 l 257
EndSplineSet
EndChar

StartChar: numbersign
Encoding: 3 35 285
Width: 571
VWidth: 0
GlyphClass: 2
Flags: HW
PickledData: "(dp1
S'org.pippin.gimp.org.kernagic'
p2
(dp3
S'lstem'
p4
I0
sS'rstem'
p5
I0
ssS'com.typemytype.robofont.layerData'
p6
(dp7
sS'org.robofab.postScriptHintData'
p8
(dp9
s."
LayerCount: 2
Fore
SplineSet
196 251 m 257
 242 476 l 257
 388 476 l 257
 342 251 l 257
 196 251 l 257
105 -4 m 257
 145 -4 l 257
 189 214 l 257
 334 214 l 257
 292 -4 l 257
 331 -4 l 257
 375 214 l 257
 475 214 l 257
 481 251 l 257
 382 251 l 257
 428 476 l 257
 519 476 l 257
 526 513 l 257
 435 513 l 257
 480 731 l 257
 441 731 l 257
 396 513 l 257
 250 513 l 257
 295 731 l 257
 255 731 l 257
 210 513 l 257
 120 513 l 257
 115 476 l 257
 202 476 l 257
 157 251 l 257
 72 251 l 257
 66 214 l 257
 149 214 l 257
 105 -4 l 257
EndSplineSet
EndChar

StartChar: o
Encoding: 79 111 286
Width: 585
VWidth: 0
GlyphClass: 2
Flags: HW
PickledData: "(dp1
S'org.pippin.gimp.org.kernagic'
p2
(dp3
S'lstem'
p4
I0
sS'rstem'
p5
I0
ssS'com.typemytype.robofont.layerData'
p6
(dp7
sS'com.typemytype.robofont.guides'
p8
((dp9
S'y'
I1093
sS'x'
I582
sS'magnetic'
p10
I5
sS'angle'
p11
F90
sS'isGlobal'
p12
I00
stp13
sS'com.fontlab.hintData'
p14
(dp15
S'vhints'
p16
((dp17
S'position'
p18
I128
sS'width'
p19
I120
s(dp20
g18
I982
sg19
I120
stp21
sS'hhints'
p22
((dp23
g18
I-19
sg19
I92
s(dp24
g18
I982
sg19
I92
stp25
ssS'org.robofab.postScriptHintData'
p26
(dp27
s."
HStem: -9 45 479 45
VStem: 62 59 479 59
AnchorPoint: "top" 294 528 basechar 0
LayerCount: 2
Fore
SplineSet
293 -10 m 256
 438 -10 528 103 528 264 c 256
 528 431 439 539 293 539 c 256
 147 539 58 431 58 264 c 256
 58 103 147 -10 293 -10 c 256
293 35 m 256
 181 35 118 133 118 264 c 256
 118 402 182 494 293 494 c 256
 404 494 468 401 468 263 c 256
 468 132 404 35 293 35 c 256
EndSplineSet
Substitution2: "Single Substitution lookup 4 subtable" ordmasculine
EndChar

StartChar: oe
Encoding: 274 339 291
Width: 958
VWidth: 0
GlyphClass: 2
Flags: HW
PickledData: "(dp1
S'org.pippin.gimp.org.kernagic'
p2
(dp3
S'lstem'
p4
I0
sS'rstem'
p5
I0
ssS'com.typemytype.robofont.layerData'
p6
(dp7
S'b'
(dp8
S'name'
p9
S'oe'
p10
sS'lib'
p11
(dp12
sS'unicodes'
p13
(tsS'width'
p14
F1915.3599999999999
sS'contours'
p15
(tsS'components'
p16
(tsS'anchors'
p17
(tsssS'org.robofab.postScriptHintData'
p18
(dp19
s."
LayerCount: 2
Fore
SplineSet
530 295 m 257
 541 406 607 484 710 484 c 256
 808 484 852 417 854 295 c 257
 530 295 l 257
293 35 m 256
 172 35 118 137 118 258 c 256
 118 383 172 485 293 485 c 256
 416 485 469 382 469 257 c 256
 469 137 417 35 293 35 c 256
869 80 m 257
 812 51 777 37 715 37 c 256
 617 37 528 96 528 255 c 257
 899 255 l 257
 899 255 902 275 902 290 c 258
 902 296 l 258
 902 441 830 529 707 529 c 258
 706 529 l 258
 621 529 532 475 501 375 c 257
 476 472 397 529 293 529 c 256
 143 529 59 416 59 258 c 256
 59 104 143 -9 293 -9 c 256
 388 -9 471 48 500 143 c 257
 530 44 616 -9 711 -9 c 256
 794 -9 843 14 890 42 c 257
 875 80 l 257
 869 80 l 257
EndSplineSet
EndChar

StartChar: ogonek
Encoding: 404 731 292
Width: 330
VWidth: 0
GlyphClass: 4
Flags: HW
PickledData: "(dp1
S'org.pippin.gimp.org.kernagic'
p2
(dp3
S'lstem'
p4
I0
sS'rstem'
p5
I0
ssS'com.typemytype.robofont.layerData'
p6
(dp7
sS'org.robofab.postScriptHintData'
p8
(dp9
s."
LayerCount: 2
Fore
SplineSet
177 -195 m 256
 198 -195 222 -190 237 -183 c 257
 237 -148 l 257
 225 -153 207 -158 191 -158 c 256
 166 -158 145 -145 145 -114 c 256
 145 -72 186 -24 224 1 c 257
 192 1 l 257
 134 -28 96 -82 96 -129 c 256
 96 -173 131 -195 177 -195 c 256
EndSplineSet
EndChar

StartChar: one
Encoding: 17 49 296
Width: 594
VWidth: 0
GlyphClass: 2
Flags: HW
PickledData: "(dp1
S'org.pippin.gimp.org.kernagic'
p2
(dp3
S'lstem'
p4
I0
sS'rstem'
p5
I0
ssS'com.typemytype.robofont.layerData'
p6
(dp7
sS'org.robofab.postScriptHintData'
p8
(dp9
s."
LayerCount: 2
Fore
SplineSet
109 0 m 257
 523 0 l 257
 523 45 l 257
 356 45 l 257
 356 711 l 257
 297 711 l 257
 261 686 157 653 125 648 c 257
 125 600 l 257
 156 603 245 629 296 657 c 257
 296 45 l 257
 109 45 l 257
 109 0 l 257
EndSplineSet
EndChar

StartChar: onehalf
Encoding: 124 189 297
Width: 835
VWidth: 0
GlyphClass: 3
Flags: HW
PickledData: "(dp1
S'org.pippin.gimp.org.kernagic'
p2
(dp3
S'lstem'
p4
I0
sS'rstem'
p5
I0
ssS'com.typemytype.robofont.layerData'
p6
(dp7
sS'org.robofab.postScriptHintData'
p8
(dp9
s."
LayerCount: 2
Fore
SplineSet
183 0 m 257
 231 0 l 257
 664 735 l 257
 615 735 l 257
 183 0 l 257
60 316 m 257
 256 316 l 257
 256 354 l 257
 186 354 l 257
 186 731 l 257
 146 731 l 257
 124 710 80 691 56 683 c 257
 56 643 l 257
 79 652 119 668 137 680 c 257
 137 354 l 257
 60 354 l 257
 60 316 l 257
527 0 m 257
 776 0 l 257
 776 42 l 257
 588 42 l 257
 615 69 673 123 691 141 c 256
 751 198 781 235 781 295 c 256
 781 371 724 416 650 416 c 256
 588 416 537 385 510 333 c 257
 541 307 l 257
 570 352 606 372 650 372 c 256
 699 372 732 342 732 293 c 256
 732 253 714 224 660 169 c 256
 640 149 565 76 527 40 c 257
 527 0 l 257
EndSplineSet
Ligature2: "fracDiagonalFractionslookup11 subtable" one slash two
EndChar

StartChar: onequarter
Encoding: 123 188 298
Width: 819
VWidth: 0
GlyphClass: 3
Flags: HW
PickledData: "(dp1
S'org.pippin.gimp.org.kernagic'
p2
(dp3
S'lstem'
p4
I0
sS'rstem'
p5
I0
ssS'com.typemytype.robofont.layerData'
p6
(dp7
sS'org.robofab.postScriptHintData'
p8
(dp9
s."
LayerCount: 2
Fore
SplineSet
530 138 m 257
 674 351 l 257
 674 138 l 257
 530 138 l 257
190 0 m 257
 238 0 l 257
 670 735 l 257
 622 735 l 257
 190 0 l 257
674 -0 m 257
 720 -0 l 257
 720 102 l 257
 781 102 l 257
 778 138 l 257
 721 138 l 257
 721 410 l 257
 669 410 l 257
 479 133 l 257
 479 102 l 257
 674 102 l 257
 674 -0 l 257
60 316 m 257
 256 316 l 257
 256 354 l 257
 186 354 l 257
 186 731 l 257
 146 731 l 257
 124 710 80 691 56 683 c 257
 56 643 l 257
 79 652 119 668 137 680 c 257
 137 354 l 257
 60 354 l 257
 60 316 l 257
EndSplineSet
Ligature2: "fracDiagonalFractionslookup11 subtable" one slash four
EndChar

StartChar: ordmasculine
Encoding: 121 186 300
Width: 435
VWidth: 0
GlyphClass: 2
Flags: HW
PickledData: "(dp1
S'org.pippin.gimp.org.kernagic'
p2
(dp3
S'lstem'
p4
I0
sS'rstem'
p5
I0
ssS'com.typemytype.robofont.layerData'
p6
(dp7
S'b'
(dp8
S'name'
p9
S'ordmasculine'
p10
sS'lib'
p11
(dp12
sS'unicodes'
p13
(tsS'width'
p14
I965
sS'contours'
p15
(tsS'components'
p16
(tsS'anchors'
p17
(tsssS'org.robofab.postScriptHintData'
p18
(dp19
s."
LayerCount: 2
Fore
SplineSet
328 556 m 256
 328 476 292 416 217 416 c 256
 146 416 110 477 110 558 c 256
 110 640 146 701 217 701 c 256
 290 701 328 638 328 556 c 256
55 557 m 256
 55 453 113 375 217 375 c 256
 315 375 380 454 380 557 c 256
 380 665 323 742 217 742 c 256
 113 742 55 664 55 557 c 256
EndSplineSet
EndChar

StartChar: oslash
Encoding: 183 248 301
Width: 585
VWidth: 0
GlyphClass: 2
Flags: HW
PickledData: "(dp1
S'org.pippin.gimp.org.kernagic'
p2
(dp3
S'lstem'
p4
I0
sS'rstem'
p5
I0
ssS'com.typemytype.robofont.layerData'
p6
(dp7
sS'org.robofab.postScriptHintData'
p8
(dp9
s."
LayerCount: 2
Fore
SplineSet
105 -60 m 257
 136 -76 l 257
 491 583 l 257
 459 599 l 257
 105 -60 l 257
EndSplineSet
Refer: 286 111 N 1 0 0 1 0 0 2
EndChar

StartChar: p
Encoding: 80 112 304
Width: 597
VWidth: 0
GlyphClass: 2
Flags: HW
PickledData: "(dp1
S'org.pippin.gimp.org.kernagic'
p2
(dp3
S'lstem'
p4
I0
sS'rstem'
p5
I0
ssS'com.fontlab.hintData'
p6
(dp7
S'vhints'
p8
((dp9
S'position'
p10
I193
sS'width'
p11
I122
s(dp12
g10
I193
sg11
I97
s(dp13
g10
I1009
sg11
I122
stp14
sS'hhints'
p15
((dp16
g10
I-19
sg11
I92
s(dp17
g10
I982
sg11
I92
stp18
ssS'com.typemytype.robofont.layerData'
p19
(dp20
sS'org.robofab.postScriptHintData'
p21
(dp22
s."
HStem: -9 45 479 45
VStem: 94 60 94 47 493 60
AnchorPoint: "top" 323 528 basechar 0
LayerCount: 2
Fore
SplineSet
312 35 m 256
 226 35 170 77 144 146 c 257
 144 272 l 258
 144 397 192 494 317 494 c 256
 429 494 479 408 479 263 c 256
 479 121 422 35 312 35 c 256
88 -232 m 257
 147 -230 l 257
 147 -43 l 257
 143 73 l 257
 178 19 237 -10 313 -10 c 256
 450 -10 540 95 540 263 c 256
 540 439 460 539 321 539 c 256
 229 539 169 488 142 409 c 257
 135 528 l 257
 88 528 l 257
 88 -232 l 257
EndSplineSet
EndChar

StartChar: paragraph
Encoding: 117 182 305
Width: 549
VWidth: 0
GlyphClass: 2
Flags: HW
PickledData: "(dp1
S'org.pippin.gimp.org.kernagic'
p2
(dp3
S'lstem'
p4
I0
sS'rstem'
p5
I0
ssS'com.typemytype.robofont.layerData'
p6
(dp7
sS'org.robofab.postScriptHintData'
p8
(dp9
s."
LayerCount: 2
Fore
SplineSet
313 669 m 257
 386 669 l 257
 386 -96 l 257
 430 -96 l 257
 430 711 l 257
 257 711 l 258
 91 711 71 614 71 557 c 256
 71 475 113 395 269 395 c 257
 269 -96 l 257
 313 -96 l 257
 313 669 l 257
EndSplineSet
EndChar

StartChar: parenright
Encoding: 9 41 307
Width: 351
VWidth: 0
GlyphClass: 2
Flags: HW
PickledData: "(dp1
S'org.pippin.gimp.org.kernagic'
p2
(dp3
S'lstem'
p4
I0
sS'rstem'
p5
I0
ssS'com.typemytype.robofont.layerData'
p6
(dp7
S'b'
(dp8
S'name'
p9
S'parenright'
p10
sS'lib'
p11
(dp12
sS'unicodes'
p13
(tsS'width'
p14
I766
sS'contours'
p15
(tsS'components'
p16
(tsS'anchors'
p17
(tsssS'org.robofab.postScriptHintData'
p18
(dp19
s."
LayerCount: 2
Fore
SplineSet
248 338 m 256
 248 492 207 643 124 773 c 257
 72 773 l 257
 72 763 l 257
 169 608 189 478 189 338 c 256
 189 198 169 69 72 -86 c 257
 72 -97 l 257
 124 -97 l 257
 207 34 248 185 248 338 c 256
EndSplineSet
EndChar

StartChar: partialdiff
Encoding: 466 8706 308
Width: 573
VWidth: 0
GlyphClass: 2
Flags: HW
PickledData: "(dp1
S'org.robofab.postScriptHintData'
p2
(dp3
s."
LayerCount: 2
Fore
SplineSet
234 26 m 256
 178 26 152 68 152 124 c 256
 152 238 261 412 446 414 c 257
 442 239 363 26 234 26 c 256
232 -9 m 256
 394 -9 502 185 502 442 c 256
 502 643 402 762 262 762 c 256
 217 762 168 750 117 724 c 257
 130 690 l 257
 174 710 215 719 251 719 c 256
 376 719 447 609 447 452 c 258
 447 448 l 257
 220 448 88 266 88 132 c 256
 88 53 133 -9 232 -9 c 256
EndSplineSet
EndChar

StartChar: percent
Encoding: 5 37 309
Width: 840
VWidth: 0
GlyphClass: 2
Flags: HW
PickledData: "(dp1
S'org.pippin.gimp.org.kernagic'
p2
(dp3
S'lstem'
p4
I0
sS'rstem'
p5
I0
ssS'com.typemytype.robofont.layerData'
p6
(dp7
S'b'
(dp8
S'name'
p9
S'percent'
p10
sS'lib'
p11
(dp12
sS'unicodes'
p13
(tsS'width'
p14
I1563
sS'contours'
p15
(tsS'components'
p16
(tsS'anchors'
p17
(tsssS'org.robofab.postScriptHintData'
p18
(dp19
s."
LayerCount: 2
Fore
SplineSet
622 -4 m 256
 731 -4 777 77 777 181 c 256
 777 287 732 366 622 366 c 256
 515 366 466 285 466 181 c 256
 466 77 513 -4 622 -4 c 256
623 34 m 256
 542 34 514 96 514 181 c 256
 514 264 541 327 623 327 c 256
 704 327 730 267 730 181 c 256
 730 98 704 34 623 34 c 256
181 0 m 257
 235 0 l 257
 636 711 l 257
 586 711 l 257
 181 0 l 257
192 348 m 256
 301 348 348 429 348 533 c 256
 348 639 302 717 192 717 c 256
 85 717 38 637 38 533 c 256
 38 429 83 348 192 348 c 256
193 386 m 256
 111 386 84 448 84 533 c 256
 84 616 111 679 193 679 c 256
 273 679 301 619 301 533 c 256
 301 450 274 386 193 386 c 256
EndSplineSet
EndChar

StartChar: period
Encoding: 14 46 310
Width: 252
VWidth: 0
GlyphClass: 2
Flags: HW
PickledData: "(dp1
S'org.pippin.gimp.org.kernagic'
p2
(dp3
S'lstem'
p4
I0
sS'rstem'
p5
I0
ssS'com.typemytype.robofont.layerData'
p6
(dp7
S'b'
(dp8
S'name'
p9
S'period'
p10
sS'lib'
p11
(dp12
sS'unicodes'
p13
(tsS'width'
p14
I624
sS'contours'
p15
(tsS'components'
p16
(tsS'anchors'
p17
(tsssS'org.robofab.postScriptHintData'
p18
(dp19
s."
LayerCount: 2
Fore
SplineSet
128 -8 m 256
 161 -8 170 14 170 38 c 256
 170 62 161 83 128 83 c 256
 94 83 86 62 86 38 c 256
 86 14 95 -8 128 -8 c 256
EndSplineSet
EndChar

StartChar: periodcentered
Encoding: 118 183 311
Width: 244
VWidth: 0
GlyphClass: 2
Flags: HW
PickledData: "(dp1
S'org.pippin.gimp.org.kernagic'
p2
(dp3
S'lstem'
p4
I0
sS'rstem'
p5
I0
ssS'com.typemytype.robofont.layerData'
p6
(dp7
S'b'
(dp8
S'name'
p9
S'periodcentered'
p10
sS'lib'
p11
(dp12
sS'unicodes'
p13
(tsS'width'
p14
I653
sS'contours'
p15
(tsS'components'
p16
(tsS'anchors'
p17
(tsssS'org.robofab.postScriptHintData'
p18
(dp19
s."
LayerCount: 2
Fore
SplineSet
121 261 m 256
 152 261 165 282 165 305 c 256
 165 327 152 349 121 349 c 256
 89 349 77 327 77 305 c 256
 77 283 90 261 121 261 c 256
EndSplineSet
EndChar

StartChar: perthousand
Encoding: 456 8240 312
Width: 1223
VWidth: 0
GlyphClass: 2
Flags: HW
PickledData: "(dp1
S'org.pippin.gimp.org.kernagic'
p2
(dp3
S'lstem'
p4
I0
sS'rstem'
p5
I0
ssS'com.typemytype.robofont.layerData'
p6
(dp7
S'b'
(dp8
S'name'
p9
S'perthousand'
p10
sS'lib'
p11
(dp12
sS'unicodes'
p13
(tsS'width'
p14
I2251
sS'contours'
p15
(tsS'components'
p16
(tsS'anchors'
p17
(tsssS'org.robofab.postScriptHintData'
p18
(dp19
s."
LayerCount: 2
Fore
SplineSet
1004 -4 m 256
 1113 -4 1161 77 1161 181 c 256
 1161 287 1115 366 1004 366 c 256
 897 366 850 285 850 181 c 256
 850 77 895 -4 1004 -4 c 256
1006 34 m 256
 924 34 897 96 897 181 c 256
 897 264 924 327 1006 327 c 256
 1087 327 1113 267 1113 181 c 256
 1113 98 1087 34 1006 34 c 256
EndSplineSet
Refer: 309 37 N 1 0 0 1 2 0 2
EndChar

StartChar: pi
Encoding: 417 960 313
Width: 658
VWidth: 0
GlyphClass: 2
Flags: HW
PickledData: "(dp1
S'org.robofab.postScriptHintData'
p2
(dp3
sS'com.typemytype.robofont.layerData'
p4
(dp5
s."
LayerCount: 2
Fore
SplineSet
527 -4 m 256
 557 -4 586 5 606 21 c 257
 606 62 l 257
 592 57 569 48 549 48 c 256
 500 48 479 92 479 191 c 256
 479 256 488 356 506 475 c 257
 624 475 l 257
 624 528 l 257
 203 528 l 258
 92 528 62 489 62 382 c 257
 97 382 l 257
 103 446 122 475 168 475 c 258
 229 475 l 257
 188 178 l 258
 173 71 106 41 55 41 c 257
 55 2 l 257
 203 2 229 55 239 163 c 258
 269 475 l 257
 463 475 l 257
 443 334 426 215 426 137 c 256
 426 42 451 -4 527 -4 c 256
EndSplineSet
EndChar

StartChar: plus
Encoding: 11 43 314
Width: 559
VWidth: 0
GlyphClass: 2
Flags: HW
PickledData: "(dp1
S'org.pippin.gimp.org.kernagic'
p2
(dp3
S'lstem'
p4
I0
sS'rstem'
p5
I0
ssS'com.typemytype.robofont.layerData'
p6
(dp7
S'b'
(dp8
S'name'
p9
S'plus'
p10
sS'lib'
p11
(dp12
sS'unicodes'
p13
(tsS'width'
p14
I1136
sS'contours'
p15
(tsS'components'
p16
(tsS'anchors'
p17
(tsssS'org.robofab.postScriptHintData'
p18
(dp19
s."
LayerCount: 2
Fore
SplineSet
251 533 m 257
 251 344 l 257
 70 344 l 257
 70 296 l 257
 251 296 l 257
 251 102 l 257
 305 102 l 257
 305 296 l 257
 482 296 l 257
 482 344 l 257
 305 344 l 257
 305 533 l 257
 251 533 l 257
EndSplineSet
EndChar

StartChar: plusminus
Encoding: 112 177 315
Width: 564
VWidth: 0
GlyphClass: 2
Flags: HW
PickledData: "(dp1
S'org.pippin.gimp.org.kernagic'
p2
(dp3
S'lstem'
p4
I0
sS'rstem'
p5
I0
ssS'com.typemytype.robofont.layerData'
p6
(dp7
sS'org.robofab.postScriptHintData'
p8
(dp9
s."
LayerCount: 2
Fore
SplineSet
54 42 m 257
 54 0 l 257
 512 0 l 257
 512 42 l 257
 54 42 l 257
254 523 m 257
 254 329 l 257
 68 329 l 257
 68 292 l 257
 254 292 l 257
 254 92 l 257
 299 92 l 257
 299 292 l 257
 480 292 l 257
 480 329 l 257
 299 329 l 257
 299 523 l 257
 254 523 l 257
EndSplineSet
EndChar

StartChar: product
Encoding: 469 8719 316
Width: 717
VWidth: 0
GlyphClass: 2
Flags: HW
PickledData: "(dp1
S'org.pippin.gimp.org.kernagic'
p2
(dp3
S'lstem'
p4
I0
sS'rstem'
p5
I0
ssS'com.typemytype.robofont.layerData'
p6
(dp7
S'b'
(dp8
S'name'
p9
S'product'
p10
sS'lib'
p11
(dp12
sS'unicodes'
p13
(tsS'width'
p14
I1533
sS'contours'
p15
(tsS'components'
p16
(tsS'anchors'
p17
(tsssS'org.robofab.postScriptHintData'
p18
(dp19
s."
LayerCount: 2
Fore
SplineSet
104 719 m 257
 104 0 l 257
 163 0 l 257
 163 662 l 257
 575 662 l 257
 575 0 l 257
 634 0 l 257
 634 719 l 257
 104 719 l 257
EndSplineSet
EndChar

StartChar: q
Encoding: 81 113 317
Width: 596
VWidth: 0
GlyphClass: 2
Flags: HW
PickledData: "(dp1
S'org.pippin.gimp.org.kernagic'
p2
(dp3
S'lstem'
p4
I0
sS'rstem'
p5
I0
ssS'com.typemytype.robofont.layerData'
p6
(dp7
sS'org.robofab.postScriptHintData'
p8
(dp9
s."
LayerCount: 2
Fore
SplineSet
290 35 m 256
 178 35 118 123 118 265 c 256
 118 406 181 494 291 494 c 256
 361 494 418 461 451 392 c 257
 451 126 l 257
 424 69 364 35 290 35 c 256
449 -233 m 257
 508 -232 l 257
 508 528 l 257
 459 528 l 257
 455 449 l 257
 428 498 377 539 292 539 c 256
 145 539 57 428 57 265 c 256
 57 103 144 -10 288 -10 c 258
 289 -10 l 258
 362 -10 419 23 452 67 c 257
 449 -43 l 257
 449 -233 l 257
EndSplineSet
EndChar

StartChar: question
Encoding: 31 63 318
Width: 441
VWidth: 0
GlyphClass: 2
Flags: HW
PickledData: "(dp1
S'org.pippin.gimp.org.kernagic'
p2
(dp3
S'lstem'
p4
I0
sS'rstem'
p5
I0
ssS'com.typemytype.robofont.layerData'
p6
(dp7
sS'org.robofab.postScriptHintData'
p8
(dp9
s."
LayerCount: 2
Fore
SplineSet
179 -7 m 256
 217 -7 229 17 229 40 c 256
 229 62 217 87 179 87 c 256
 142 87 132 62 132 40 c 256
 132 18 142 -7 179 -7 c 256
163 197 m 257
 193 197 l 257
 242 380 359 434 359 579 c 256
 359 679 289 732 199 732 c 256
 140 732 92 712 57 688 c 257
 65 638 l 257
 85 651 139 681 191 681 c 256
 259 681 299 650 299 576 c 256
 299 453 163 324 163 197 c 257
EndSplineSet
EndChar

StartChar: quotedbl
Encoding: 2 34 320
Width: 296
VWidth: 0
GlyphClass: 2
Flags: HW
PickledData: "(dp1
S'org.robofab.postScriptHintData'
p2
(dp3
sS'com.typemytype.robofont.layerData'
p4
(dp5
s."
LayerCount: 2
Fore
SplineSet
196 511 m 257
 221 511 l 257
 237 738 l 257
 175 738 l 257
 196 511 l 257
79 511 m 257
 104 511 l 257
 119 738 l 257
 58 738 l 257
 79 511 l 257
EndSplineSet
EndChar

StartChar: quotedblbase
Encoding: 451 8222 321
Width: 317
VWidth: 0
GlyphClass: 2
Flags: HW
PickledData: "(dp1
S'org.robofab.postScriptHintData'
p2
(dp3
s."
LayerCount: 2
Fore
SplineSet
177 -134 m 257
 207 -134 l 257
 257 84 l 257
 204 84 l 257
 177 -134 l 257
55 -134 m 257
 87 -134 l 257
 134 84 l 257
 83 84 l 257
 55 -134 l 257
EndSplineSet
EndChar

StartChar: quotedblleft
Encoding: 449 8220 322
Width: 422
VWidth: 0
GlyphClass: 2
Flags: HW
PickledData: "(dp1
S'org.robofab.postScriptHintData'
p2
(dp3
sS'com.typemytype.robofont.layerData'
p4
(dp5
s."
LayerCount: 2
Fore
SplineSet
242 494 m 257
 306 494 l 257
 331 719 l 257
 292 719 l 257
 242 494 l 257
90 494 m 257
 154 494 l 257
 179 719 l 257
 139 719 l 257
 90 494 l 257
EndSplineSet
EndChar

StartChar: quotedblright
Encoding: 450 8221 323
Width: 422
VWidth: 0
GlyphClass: 2
Flags: HW
PickledData: "(dp1
S'org.robofab.postScriptHintData'
p2
(dp3
sS'com.typemytype.robofont.layerData'
p4
(dp5
s."
LayerCount: 2
Fore
SplineSet
90 494 m 257
 129 494 l 257
 179 719 l 257
 115 719 l 257
 90 494 l 257
242 494 m 257
 282 494 l 257
 331 719 l 257
 267 719 l 257
 242 494 l 257
EndSplineSet
EndChar

StartChar: quoteleft
Encoding: 446 8216 324
Width: 254
VWidth: 0
GlyphClass: 2
Flags: HW
PickledData: "(dp1
S'org.robofab.postScriptHintData'
p2
(dp3
sS'com.typemytype.robofont.layerData'
p4
(dp5
s."
LayerCount: 2
Fore
SplineSet
179 719 m 257
 139 719 l 257
 90 494 l 257
 154 494 l 257
 179 719 l 257
EndSplineSet
EndChar

StartChar: quoteright
Encoding: 447 8217 325
Width: 254
VWidth: 0
GlyphClass: 2
Flags: HW
PickledData: "(dp1
S'org.robofab.postScriptHintData'
p2
(dp3
sS'com.typemytype.robofont.layerData'
p4
(dp5
s."
LayerCount: 2
Fore
SplineSet
90 494 m 257
 129 494 l 257
 179 719 l 257
 115 719 l 257
 90 494 l 257
EndSplineSet
EndChar

StartChar: quotesinglbase
Encoding: 448 8218 326
Width: 205
VWidth: 0
GlyphClass: 2
Flags: HW
PickledData: "(dp1
S'org.robofab.postScriptHintData'
p2
(dp3
s."
LayerCount: 2
Fore
SplineSet
47 -134 m 257
 81 -134 l 257
 133 84 l 257
 79 84 l 257
 47 -134 l 257
EndSplineSet
EndChar

StartChar: quotesingle
Encoding: 7 39 327
Width: 141
VWidth: 0
GlyphClass: 2
Flags: HW
PickledData: "(dp1
S'org.robofab.postScriptHintData'
p2
(dp3
s."
LayerCount: 2
Fore
SplineSet
50 482 m 257
 85 482 l 257
 94 719 l 257
 39 719 l 257
 50 482 l 257
EndSplineSet
EndChar

StartChar: r
Encoding: 82 114 328
Width: 376
VWidth: 0
GlyphClass: 2
Flags: HW
PickledData: "(dp1
S'org.pippin.gimp.org.kernagic'
p2
(dp3
S'lstem'
p4
I0
sS'rstem'
p5
I352
ssS'com.fontlab.hintData'
p6
(dp7
S'vhints'
p8
((dp9
S'position'
p10
I193
sS'width'
p11
I122
s(dp12
g10
I193
sg11
I92
stp13
sS'hhints'
p14
((dp15
g10
I974
sg11
I94
stp16
ssS'com.typemytype.robofont.layerData'
p17
(dp18
sS'org.robofab.postScriptHintData'
p19
(dp20
s."
HStem: 476 46
VStem: 94 60 94 45
AnchorPoint: "top" 221 528 basechar 0
LayerCount: 2
Fore
SplineSet
88 0 m 257
 147 0 l 257
 147 308 l 258
 147 403 212 488 311 488 c 256
 316 488 331 487 336 486 c 257
 342 533 l 257
 332 534 318 535 302 535 c 256
 240 535 176 504 139 407 c 257
 133 528 l 257
 88 528 l 257
 88 0 l 257
EndSplineSet
EndChar

StartChar: radical
Encoding: 474 8730 330
Width: 585
VWidth: 0
GlyphClass: 2
Flags: HW
PickledData: "(dp1
S'org.pippin.gimp.org.kernagic'
p2
(dp3
S'lstem'
p4
I0
sS'rstem'
p5
I0
ssS'com.typemytype.robofont.layerData'
p6
(dp7
S'b'
(dp8
S'name'
p9
S'radical'
p10
sS'lib'
p11
(dp12
sS'unicodes'
p13
(tsS'width'
p14
I1136
sS'contours'
p15
(tsS'components'
p16
(tsS'anchors'
p17
(tsssS'org.robofab.postScriptHintData'
p18
(dp19
s."
LayerCount: 2
Fore
SplineSet
508 825 m 257
 482 716 335 131 309 22 c 257
 263 160 211 292 162 427 c 257
 42 401 l 257
 48 360 l 257
 118 375 l 257
 291 -79 l 257
 337 -79 l 257
 556 825 l 257
 508 825 l 257
EndSplineSet
EndChar

StartChar: registered
Encoding: 109 174 333
Width: 938
VWidth: 0
GlyphClass: 2
Flags: HW
PickledData: "(dp1
S'org.pippin.gimp.org.kernagic'
p2
(dp3
S'lstem'
p4
I0
sS'rstem'
p5
I0
ssS'com.typemytype.robofont.layerData'
p6
(dp7
sS'org.robofab.postScriptHintData'
p8
(dp9
s."
LayerCount: 2
Fore
SplineSet
468 -18 m 256
 653 -18 852 103 852 366 c 256
 852 629 653 750 468 750 c 256
 283 750 86 629 86 366 c 256
 86 103 283 -18 468 -18 c 256
468 17 m 256
 305 17 131 126 131 366 c 256
 131 606 305 716 468 716 c 256
 631 716 807 606 807 366 c 256
 807 126 631 17 468 17 c 256
369 417 m 257
 369 575 l 257
 481 575 l 258
 565 575 595 563 595 497 c 256
 595 444 579 417 505 417 c 258
 369 417 l 257
322 151 m 257
 368 151 l 257
 368 376 l 257
 495 376 l 257
 602 151 l 257
 652 151 l 257
 542 382 l 257
 605 384 638 431 638 499 c 256
 638 577 608 615 483 615 c 258
 322 615 l 257
 322 151 l 257
EndSplineSet
EndChar

StartChar: ring
Encoding: 403 730 334
Width: 317
VWidth: 0
GlyphClass: 4
Flags: HW
PickledData: "(dp1
S'org.robofab.postScriptHintData'
p2
(dp3
sS'com.typemytype.robofont.layerData'
p4
(dp5
s."
AnchorPoint: "top" 157 516 mark 0
LayerCount: 2
Fore
SplineSet
157 586 m 256
 203 586 241 621 241 668 c 256
 241 714 203 749 157 749 c 256
 110 749 73 715 73 668 c 256
 73 621 110 586 157 586 c 256
157 618 m 256
 130 618 109 640 109 667 c 256
 109 694 130 716 157 716 c 256
 184 716 207 694 207 667 c 256
 207 640 184 618 157 618 c 256
EndSplineSet
EndChar

StartChar: s
Encoding: 83 115 335
Width: 461
VWidth: 0
GlyphClass: 2
Flags: HW
PickledData: "(dp1
S'org.pippin.gimp.org.kernagic'
p2
(dp3
S'lstem'
p4
I168
sS'rstem'
p5
I620
ssS'com.typemytype.robofont.layerData'
p6
(dp7
sS'com.typemytype.robofont.guides'
p8
((dp9
S'y'
I381
sS'x'
I77
sS'magnetic'
p10
I5
sS'angle'
p11
F90
sS'isGlobal'
p12
I00
stp13
sS'com.fontlab.hintData'
p14
(dp15
S'vhints'
p16
((dp17
S'position'
p18
I142
sS'width'
p19
I107
s(dp20
g18
I738
sg19
I104
stp21
sS'hhints'
p22
((dp23
g18
I-19
sg19
I92
s(dp24
g18
I982
sg19
I92
stp25
ssS'org.robofab.postScriptHintData'
p26
(dp27
s."
HStem: -9 45 479 45
VStem: 69 52 360 51
AnchorPoint: "top" 244 528 basechar 0
LayerCount: 2
Fore
SplineSet
359 137 m 256
 359 68 321 35 238 35 c 256
 189 35 136 48 95 81 c 257
 88 81 l 257
 63 46 l 257
 111 8 176 -10 238 -10 c 256
 337 -10 411 36 411 139 c 256
 411 210 383 254 273 289 c 258
 204 311 l 257
 138 332 115 359 115 405 c 256
 115 465 169 494 243 494 c 256
 291 494 333 478 360 457 c 257
 365 457 l 257
 390 490 l 257
 361 517 306 539 242 539 c 256
 134 539 61 490 61 404 c 256
 61 338 89 297 190 265 c 257
 260 243 l 257
 341 218 359 190 359 137 c 256
EndSplineSet
EndChar

StartChar: section
Encoding: 102 167 341
Width: 515
VWidth: 0
GlyphClass: 2
Flags: HW
PickledData: "(dp1
S'org.pippin.gimp.org.kernagic'
p2
(dp3
S'lstem'
p4
I0
sS'rstem'
p5
I0
ssS'com.typemytype.robofont.layerData'
p6
(dp7
S'b'
(dp8
S'name'
p9
S'section'
p10
sS'lib'
p11
(dp12
sS'unicodes'
p13
(tsS'width'
p14
I1079
sS'contours'
p15
(tsS'components'
p16
(tsS'anchors'
p17
(tsssS'org.robofab.postScriptHintData'
p18
(dp19
s."
LayerCount: 2
Fore
SplineSet
326 250 m 257
 320 252 278 268 250 277 c 256
 158 310 136 319 136 369 c 256
 136 417 168 440 196 453 c 256
 198 452 240 437 264 429 c 256
 335 403 384 378 384 333 c 256
 384 281 350 266 326 250 c 257
245 -30 m 256
 342 -30 428 13 428 115 c 256
 428 164 405 204 362 229 c 257
 403 252 431 282 431 332 c 256
 431 400 390 430 282 469 c 256
 169 510 136 519 136 585 c 256
 136 648 190 680 269 680 c 256
 317 680 363 667 398 650 c 257
 411 689 l 257
 368 709 318 720 265 720 c 256
 163 720 86 673 86 585 c 256
 86 535 107 501 154 474 c 257
 115 450 87 417 87 367 c 256
 87 295 126 272 229 237 c 256
 357 193 380 164 380 116 c 256
 380 43 321 11 249 11 c 256
 196 11 143 25 96 48 c 257
 89 5 l 257
 136 -17 193 -30 245 -30 c 256
EndSplineSet
EndChar

StartChar: semicolon
Encoding: 27 59 342
Width: 270
VWidth: 0
GlyphClass: 2
Flags: HW
PickledData: "(dp1
S'org.pippin.gimp.org.kernagic'
p2
(dp3
S'lstem'
p4
I0
sS'rstem'
p5
I0
ssS'com.typemytype.robofont.layerData'
p6
(dp7
sS'org.robofab.postScriptHintData'
p8
(dp9
s."
LayerCount: 2
Fore
SplineSet
140 422 m 256
 175 422 184 447 184 469 c 256
 184 490 175 516 140 516 c 256
 104 516 94 490 94 469 c 256
 94 447 105 422 140 422 c 256
99 -145 m 257
 128 -145 l 257
 128 -145 174 64 174 79 c 258
 174 103 l 257
 108 103 l 257
 108 66 99 -145 99 -145 c 257
EndSplineSet
EndChar

StartChar: seven
Encoding: 23 55 343
Width: 594
VWidth: 0
GlyphClass: 2
Flags: HW
PickledData: "(dp1
S'org.pippin.gimp.org.kernagic'
p2
(dp3
S'lstem'
p4
I0
sS'rstem'
p5
I0
ssS'com.typemytype.robofont.layerData'
p6
(dp7
sS'org.robofab.postScriptHintData'
p8
(dp9
s."
LayerCount: 2
Fore
SplineSet
182 0 m 257
 236 0 l 257
 508 667 l 257
 508 711 l 257
 94 711 l 257
 107 665 l 257
 452 665 l 257
 182 0 l 257
EndSplineSet
EndChar

StartChar: six
Encoding: 22 54 344
Width: 594
VWidth: 0
GlyphClass: 2
Flags: HW
PickledData: "(dp1
S'org.pippin.gimp.org.kernagic'
p2
(dp3
S'lstem'
p4
I0
sS'rstem'
p5
I0
ssS'com.typemytype.robofont.layerData'
p6
(dp7
sS'org.robofab.postScriptHintData'
p8
(dp9
s."
LayerCount: 2
Fore
SplineSet
309 38 m 256
 200 38 145 120 145 207 c 256
 145 342 257 372 312 372 c 256
 414 372 475 302 475 210 c 256
 475 121 417 38 309 38 c 256
310 -10 m 256
 449 -10 529 92 529 210 c 256
 529 337 433 418 327 418 c 256
 265 418 214 394 180 364 c 257
 256 478 335 590 413 702 c 257
 413 711 l 257
 354 711 l 257
 204 493 l 258
 133 390 91 323 91 212 c 256
 91 103 163 -10 310 -10 c 256
EndSplineSet
EndChar

StartChar: slash
Encoding: 15 47 345
Width: 487
VWidth: 0
GlyphClass: 2
Flags: HW
PickledData: "(dp1
S'org.pippin.gimp.org.kernagic'
p2
(dp3
S'lstem'
p4
I0
sS'rstem'
p5
I0
ssS'com.typemytype.robofont.layerData'
p6
(dp7
S'b'
(dp8
S'name'
p9
S'slash'
p10
sS'lib'
p11
(dp12
sS'unicodes'
p13
(tsS'width'
p14
I965
sS'contours'
p15
(tsS'components'
p16
(tsS'anchors'
p17
(tsssS'org.robofab.postScriptHintData'
p18
(dp19
s."
LayerCount: 2
Fore
SplineSet
64 -73 m 257
 105 -73 l 257
 440 762 l 257
 397 762 l 257
 64 -73 l 257
EndSplineSet
EndChar

StartChar: slashbar
Encoding: 65544 -1 346
Width: 353
VWidth: 0
GlyphClass: 4
Flags: HW
PickledData: "(dp1
S'org.pippin.gimp.org.kernagic'
p2
(dp3
S'lstem'
p4
I0
sS'rstem'
p5
I0
ssS'com.typemytype.robofont.layerData'
p6
(dp7
S'b'
(dp8
S'name'
p9
S'slashbar'
p10
sS'lib'
p11
(dp12
sS'unicodes'
p13
(tsS'width'
p14
I908
sS'contours'
p15
(tsS'components'
p16
(tsS'anchors'
p17
(tsssS'org.robofab.postScriptHintData'
p18
(dp19
s."
LayerCount: 2
Fore
SplineSet
56 280 m 257
 313 442 l 257
 313 490 l 257
 56 328 l 257
 56 280 l 257
EndSplineSet
EndChar

StartChar: sterling
Encoding: 98 163 348
Width: 584
VWidth: 0
GlyphClass: 2
Flags: HW
PickledData: "(dp1
S'org.pippin.gimp.org.kernagic'
p2
(dp3
S'lstem'
p4
I0
sS'rstem'
p5
I0
ssS'com.typemytype.robofont.layerData'
p6
(dp7
S'b'
(dp8
S'name'
p9
S'sterling'
p10
sS'lib'
p11
(dp12
sS'unicodes'
p13
(tsS'width'
p14
I1136
sS'contours'
p15
((dp16
S'points'
p17
((dp18
S'segmentType'
p19
S'line'
p20
sS'x'
I20
sS'smooth'
p21
I00
sS'y'
I0
s(dp22
g19
S'line'
p23
sS'x'
I8
sg21
I00
sS'y'
I115
s(dp24
g19
S'line'
p25
sS'x'
I180
sg21
I00
sS'y'
I132
s(dp26
g19
S'line'
p27
sS'x'
I180
sg21
I00
sS'y'
I683
s(dp28
g19
S'line'
p29
sS'x'
I8
sg21
I00
sS'y'
I683
s(dp30
g19
S'line'
p31
sS'x'
I8
sg21
I00
sS'y'
I806
s(dp32
g19
S'line'
p33
sS'x'
I180
sg21
I00
sS'y'
I806
s(dp34
g19
S'line'
p35
sS'x'
I180
sg21
I01
sS'y'
I920
s(dp36
S'y'
I1183
sS'x'
I180
sg21
I00
s(dp37
S'y'
I1476
sS'x'
I245
sg21
I00
s(dp38
g19
S'curve'
p39
sS'x'
I598
sg21
I01
sS'y'
I1476
s(dp40
S'y'
I1476
sS'x'
I742
sg21
I00
s(dp41
S'y'
I1421
sS'x'
I854
sg21
I00
s(dp42
g19
S'curve'
p43
sS'x'
I939
sg21
I00
sS'y'
I1347
s(dp44
g19
S'line'
p45
sS'x'
I871
sg21
I00
sS'y'
I1229
s(dp46
S'y'
I1297
sS'x'
I785
sg21
I00
s(dp47
S'y'
I1334
sS'x'
I700
sg21
I00
s(dp48
g19
S'curve'
p49
sS'x'
I598
sg21
I01
sS'y'
I1334
s(dp50
S'y'
I1334
sS'x'
I397
sg21
I00
s(dp51
S'y'
I1179
sS'x'
I356
sg21
I00
s(dp52
g19
S'curve'
p53
sS'x'
I356
sg21
I01
sS'y'
I949
s(dp54
g19
S'line'
p55
sS'x'
I356
sg21
I00
sS'y'
I806
s(dp56
g19
S'line'
p57
sS'x'
I739
sg21
I00
sS'y'
I806
s(dp58
g19
S'line'
p59
sS'x'
I739
sg21
I00
sS'y'
I683
s(dp60
g19
S'line'
p61
sS'x'
I356
sg21
I00
sS'y'
I683
s(dp62
g19
S'line'
p63
sS'x'
I356
sg21
I00
sS'y'
I134
s(dp64
g19
S'line'
p65
sS'x'
I953
sg21
I00
sS'y'
I134
s(dp66
g19
S'line'
p67
sS'x'
I940
sg21
I00
sS'y'
I0
stp68
stp69
sS'components'
p70
(tsS'anchors'
p71
(tsssS'org.robofab.postScriptHintData'
p72
(dp73
s."
LayerCount: 2
Fore
SplineSet
203 460 m 258
 203 591 240 673 346 673 c 256
 400 673 439 653 479 621 c 257
 484 621 l 257
 507 658 l 257
 471 691 420 720 345 720 c 256
 168 720 147 576 147 439 c 258
 147 378 l 257
 59 378 l 257
 59 337 l 257
 147 337 l 257
 147 43 l 257
 57 37 l 257
 63 0 l 257
 505 0 l 257
 509 44 l 257
 203 44 l 257
 203 337 l 257
 405 337 l 257
 405 378 l 257
 203 378 l 257
 203 460 l 258
EndSplineSet
EndChar

StartChar: t
Encoding: 84 116 350
Width: 375
VWidth: 0
GlyphClass: 2
Flags: HW
PickledData: "(dp1
S'org.pippin.gimp.org.kernagic'
p2
(dp3
S'lstem'
p4
I189
sS'rstem'
p5
I480
ssS'com.fontlab.hintData'
p6
(dp7
S'vhints'
p8
((dp9
S'position'
p10
I244
sS'width'
p11
I122
s(dp12
g10
I286
sg11
I80
stp13
sS'hhints'
p14
((dp15
g10
I-11
sg11
I83
stp16
ssS'com.typemytype.robofont.layerData'
p17
(dp18
sS'org.robofab.postScriptHintData'
p19
(dp20
s."
HStem: -5 41
VStem: 119 60 140 39
AnchorPoint: "top" 145 637 basechar 0
LayerCount: 2
Fore
SplineSet
257 -4 m 256
 286 -4 320 -1 320 -1 c 257
 322 39 l 257
 322 39 281 37 259 37 c 256
 196 38 174 56 174 140 c 258
 174 493 l 257
 327 493 l 257
 327 528 l 257
 174 528 l 257
 174 668 l 257
 126 664 l 257
 116 528 l 257
 39 523 l 257
 39 493 l 257
 115 493 l 257
 115 138 l 258
 115 32 159 -4 257 -4 c 256
EndSplineSet
EndChar

StartChar: thorn
Encoding: 189 254 355
Width: 604
VWidth: 0
GlyphClass: 2
Flags: HW
PickledData: "(dp1
S'org.pippin.gimp.org.kernagic'
p2
(dp3
S'lstem'
p4
I0
sS'rstem'
p5
I0
ssS'com.typemytype.robofont.layerData'
p6
(dp7
S'b'
(dp8
S'name'
p9
S'thorn'
p10
sS'lib'
p11
(dp12
sS'unicodes'
p13
(tsS'width'
p14
I1221
sS'contours'
p15
(tsS'components'
p16
(tsS'anchors'
p17
(tsssS'org.robofab.postScriptHintData'
p18
(dp19
s."
LayerCount: 2
Fore
SplineSet
75 146 m 257
 75 -241 l 257
 132 -241 l 257
 132 146 l 257
 75 146 l 257
EndSplineSet
Refer: 155 98 N 1 0 0 1 -13 0 2
EndChar

StartChar: three
Encoding: 19 51 356
Width: 594
VWidth: 0
GlyphClass: 2
Flags: HW
PickledData: "(dp1
S'org.pippin.gimp.org.kernagic'
p2
(dp3
S'lstem'
p4
I0
sS'rstem'
p5
I0
ssS'com.typemytype.robofont.layerData'
p6
(dp7
sS'org.robofab.postScriptHintData'
p8
(dp9
s."
LayerCount: 2
Fore
SplineSet
286 -10 m 256
 440 -10 518 75 518 189 c 256
 518 298 456 361 356 379 c 257
 447 398 500 448 500 543 c 256
 501 656 411 721 288 721 c 256
 223 721 136 702 80 638 c 257
 110 605 l 257
 114 605 l 257
 161 651 224 672 285 672 c 258
 290 672 l 258
 378 672 445 631 445 543 c 256
 445 420 335 406 241 403 c 257
 209 403 l 257
 217 352 l 257
 241 352 l 257
 366 351 464 324 464 188 c 256
 464 84 392 39 288 39 c 256
 222 39 155 59 121 97 c 257
 116 97 l 257
 86 66 l 257
 119 22 197 -10 286 -10 c 256
EndSplineSet
EndChar

StartChar: threequarters
Encoding: 125 190 357
Width: 843
VWidth: 0
GlyphClass: 3
Flags: HW
PickledData: "(dp1
S'org.pippin.gimp.org.kernagic'
p2
(dp3
S'lstem'
p4
I0
sS'rstem'
p5
I0
ssS'com.typemytype.robofont.layerData'
p6
(dp7
sS'org.robofab.postScriptHintData'
p8
(dp9
s."
LayerCount: 2
Fore
SplineSet
545 138 m 257
 689 351 l 257
 689 138 l 257
 545 138 l 257
206 0 m 257
 254 0 l 257
 687 735 l 257
 638 735 l 257
 206 0 l 257
689 -0 m 257
 735 -0 l 257
 735 102 l 257
 796 102 l 257
 792 138 l 257
 736 138 l 257
 736 410 l 257
 684 410 l 257
 494 133 l 257
 494 102 l 257
 689 102 l 257
 689 -0 l 257
172 311 m 256
 240 311 304 347 304 428 c 256
 304 479 271 518 221 531 c 257
 269 541 296 583 296 626 c 256
 296 698 240 732 178 732 c 256
 137 732 93 717 60 691 c 257
 81 658 l 257
 112 679 146 690 176 690 c 256
 218 690 249 668 249 622 c 256
 249 577 218 550 160 550 c 258
 120 550 l 257
 120 508 l 257
 161 508 l 258
 224 508 255 479 255 427 c 256
 255 374 217 352 172 352 c 256
 141 352 106 363 79 380 c 257
 62 345 l 257
 93 323 133 311 172 311 c 256
EndSplineSet
Ligature2: "fracDiagonalFractionslookup11 subtable" three slash four
EndChar

StartChar: tilde
Encoding: 405 732 358
Width: 488
VWidth: 0
GlyphClass: 4
Flags: HW
PickledData: "(dp1
S'org.robofab.postScriptHintData'
p2
(dp3
sS'com.fontlab.hintData'
p4
(dp5
S'vhints'
p6
((dp7
S'position'
p8
I169
sS'width'
p9
I63
s(dp10
g8
I657
sg9
I67
stp11
sS'hhints'
p12
((dp13
g8
I1301
sg9
I88
s(dp14
g8
I1400
sg9
I79
stp15
ssS'com.typemytype.robofont.layerData'
p16
(dp17
s."
HStem: 635 43 684 39
VStem: 83 31 321 33
AnchorPoint: "top" 244 516 mark 0
LayerCount: 2
Fore
SplineSet
91 643 m 257
 123 643 l 257
 125 677 137 691 155 691 c 256
 193 691 255 643 305 643 c 256
 333 643 365 657 365 731 c 257
 332 731 l 257
 329 698 319 687 302 687 c 256
 270 687 215 731 160 731 c 256
 126 731 91 715 91 643 c 257
EndSplineSet
EndChar

StartChar: trademark
Encoding: 463 8482 359
Width: 986
VWidth: 0
GlyphClass: 2
Flags: HW
PickledData: "(dp1
S'org.robofab.postScriptHintData'
p2
(dp3
sS'com.typemytype.robofont.layerData'
p4
(dp5
S'b'
(dp6
S'name'
p7
S'trademark'
p8
sS'lib'
p9
(dp10
sS'unicodes'
p11
(tsS'width'
p12
I2216
sS'contours'
p13
(tsS'components'
p14
(tsS'anchors'
p15
(tsss."
LayerCount: 2
Fore
SplineSet
186 264 m 257
 224 264 l 257
 224 687 l 257
 369 687 l 257
 369 717 l 257
 46 717 l 257
 46 687 l 257
 186 687 l 257
 186 264 l 257
451 264 m 257
 485 264 l 257
 489 670 l 257
 657 315 l 257
 689 315 l 257
 849 668 l 257
 853 264 l 257
 889 264 l 257
 882 717 l 257
 838 717 l 257
 674 355 l 257
 501 717 l 257
 458 717 l 257
 451 264 l 257
EndSplineSet
EndChar

StartChar: two
Encoding: 18 50 360
Width: 594
VWidth: 0
GlyphClass: 2
Flags: HW
PickledData: "(dp1
S'org.pippin.gimp.org.kernagic'
p2
(dp3
S'lstem'
p4
I0
sS'rstem'
p5
I0
ssS'com.typemytype.robofont.layerData'
p6
(dp7
sS'org.robofab.postScriptHintData'
p8
(dp9
s."
LayerCount: 2
Fore
SplineSet
103 619 m 257
 151 654 212 673 273 673 c 256
 343 673 441 644 441 522 c 256
 441 425 404 397 331 324 c 258
 58 50 l 257
 74 0 l 257
 496 0 l 257
 499 48 l 257
 126 48 l 257
 371 291 l 258
 466 385 498 421 498 529 c 256
 498 675 357 721 272 721 c 256
 194 721 116 693 72 656 c 257
 96 619 l 257
 103 619 l 257
EndSplineSet
EndChar

StartChar: u
Encoding: 85 117 361
Width: 576
VWidth: 0
GlyphClass: 2
Flags: HW
PickledData: "(dp1
S'org.pippin.gimp.org.kernagic'
p2
(dp3
S'lstem'
p4
I0
sS'rstem'
p5
I0
ssS'com.fontlab.hintData'
p6
(dp7
S'vhints'
p8
((dp9
S'position'
p10
I162
sS'width'
p11
I166
s(dp12
g10
I862
sg11
I166
stp13
sS'hhints'
p14
((dp15
g10
I-21
sg11
I126
stp16
ssS'com.typemytype.robofont.layerData'
p17
(dp18
sS'org.robofab.postScriptHintData'
p19
(dp20
s."
HStem: -10 62
VStem: 79 81 421 81
AnchorPoint: "top" 291 528 basechar 0
LayerCount: 2
Fore
SplineSet
430 117 m 257
 405 79 361 35 270 35 c 256
 178 35 141 94 141 187 c 258
 141 528 l 257
 82 528 l 257
 82 203 l 258
 82 58 147 -10 267 -10 c 256
 349 -10 397 16 433 69 c 257
 438 0 l 257
 489 0 l 257
 489 528 l 257
 430 528 l 257
 430 117 l 257
EndSplineSet
EndChar

StartChar: underscore
Encoding: 63 95 369
Width: 423
VWidth: 0
GlyphClass: 2
Flags: HW
PickledData: "(dp1
S'org.pippin.gimp.org.kernagic'
p2
(dp3
S'lstem'
p4
I0
sS'rstem'
p5
I0
ssS'com.typemytype.robofont.layerData'
p6
(dp7
sS'org.robofab.postScriptHintData'
p8
(dp9
s."
LayerCount: 2
Fore
SplineSet
0 -122 m 257
 424 -122 l 257
 424 -77 l 257
 0 -77 l 257
 0 -122 l 257
EndSplineSet
EndChar

StartChar: uni00AD
Encoding: 108 173 372
Width: 512
VWidth: 0
GlyphClass: 2
Flags: HW
PickledData: "(dp1
S'org.robofab.postScriptHintData'
p2
(dp3
s."
LayerCount: 2
Fore
SplineSet
62 131 m 257
 446 131 l 257
 446 179 l 257
 62 179 l 257
 62 131 l 257
EndSplineSet
EndChar

StartChar: uni00B2
Encoding: 113 178 373
Width: 366
VWidth: 0
GlyphClass: 2
Flags: HW
PickledData: "(dp1
S'org.robofab.postScriptHintData'
p2
(dp3
sS'com.typemytype.robofont.layerData'
p4
(dp5
s."
LayerCount: 2
Fore
SplineSet
73 332 m 257
 312 332 l 257
 313 368 l 257
 134 368 l 257
 181 416 205 439 236 471 c 256
 288 524 314 561 314 618 c 256
 314 698 256 739 186 739 c 256
 121 739 74 715 40 673 c 257
 65 645 l 257
 95 680 131 701 186 701 c 256
 238 701 269 666 269 617 c 256
 269 582 251 550 204 498 c 256
 162 453 127 422 73 369 c 257
 73 332 l 257
EndSplineSet
EndChar

StartChar: uni00B3
Encoding: 114 179 374
Width: 425
VWidth: 0
GlyphClass: 2
Flags: HW
PickledData: "(dp1
S'org.robofab.postScriptHintData'
p2
(dp3
sS'com.typemytype.robofont.layerData'
p4
(dp5
s."
LayerCount: 2
Fore
SplineSet
215 321 m 256
 282 321 342 358 342 434 c 256
 342 491 306 525 262 536 c 257
 306 548 339 580 339 633 c 256
 339 707 281 738 217 738 c 256
 165 738 116 720 89 690 c 257
 110 662 l 257
 133 685 165 701 214 701 c 256
 262 701 298 679 298 631 c 256
 298 585 266 552 207 552 c 258
 153 552 l 257
 153 518 l 257
 207 518 l 257
 265 518 302 484 302 434 c 256
 302 385 264 358 215 358 c 256
 165 358 131 374 110 397 c 257
 88 367 l 257
 115 337 164 321 215 321 c 256
EndSplineSet
EndChar

StartChar: uni00B9
Encoding: 120 185 376
Width: 439
VWidth: 0
GlyphClass: 2
Flags: HW
PickledData: "(dp1
S'org.robofab.postScriptHintData'
p2
(dp3
sS'com.typemytype.robofont.layerData'
p4
(dp5
s."
LayerCount: 2
Fore
SplineSet
136 328 m 257
 368 328 l 257
 368 366 l 257
 279 366 l 257
 279 734 l 257
 238 734 l 257
 217 714 163 692 135 685 c 257
 135 646 l 257
 162 652 211 670 229 682 c 257
 229 366 l 257
 136 366 l 257
 136 328 l 257
EndSplineSet
EndChar

StartChar: uni02C9
Encoding: 400 713 445
Width: 292
VWidth: 0
GlyphClass: 4
Flags: HW
PickledData: "(dp1
S'org.robofab.postScriptHintData'
p2
(dp3
s."
AnchorPoint: "top" 154 516 mark 0
LayerCount: 2
Fore
SplineSet
12 633 m 257
 280 633 l 257
 280 683 l 257
 12 683 l 257
 12 633 l 257
EndSplineSet
EndChar

StartChar: uni0307
Encoding: 407 775 446
Width: 157
VWidth: 0
GlyphClass: 4
Flags: HW
PickledData: "(dp1
S'org.robofab.postScriptHintData'
p2
(dp3
sS'com.typemytype.robofont.layerData'
p4
(dp5
s."
LayerCount: 2
Fore
SplineSet
126 708 m 256
 126 736 112 751 83 751 c 256
 53 751 38 736 38 708 c 256
 38 680 53 665 83 665 c 256
 112 665 126 680 126 708 c 256
EndSplineSet
EndChar

StartChar: uni2074
Encoding: 460 8308 465
Width: 346
VWidth: 0
GlyphClass: 2
Flags: HW
PickledData: "(dp1
S'org.robofab.postScriptHintData'
p2
(dp3
sS'com.typemytype.robofont.layerData'
p4
(dp5
s."
LayerCount: 2
Fore
SplineSet
88 459 m 257
 218 676 l 257
 217 459 l 257
 88 459 l 257
217 314 m 257
 265 314 l 257
 264 423 l 257
 326 423 l 257
 325 459 l 257
 265 459 l 257
 265 735 l 257
 214 735 l 257
 41 462 l 257
 41 423 l 257
 217 423 l 257
 217 314 l 257
EndSplineSet
EndChar

StartChar: uni2113
Encoding: 462 8467 466
Width: 554
VWidth: 0
Flags: HW
PickledData: "(dp1
S'org.robofab.postScriptHintData'
p2
(dp3
s."
LayerCount: 2
Fore
SplineSet
260 349 m 257
 339 660 l 258
 359 738 403 772 443 772 c 256
 482 772 517 740 517 687 c 256
 517 637 481 541 379 458 c 257
 260 349 l 257
152 116 m 256
 152 26 194 -10 261 -10 c 256
 360 -10 426 48 426 48 c 257
 416 85 l 257
 366 55 325 37 284 37 c 256
 236 37 215 63 215 112 c 256
 215 137 220 167 229 204 c 258
 252 296 l 257
 398 422 l 258
 514 522 559 586 559 689 c 256
 559 782 500 819 438 819 c 256
 381 819 323 795 292 682 c 258
 189 304 l 257
 42 191 l 257
 61 163 l 257
 176 251 l 257
 160 197 152 152 152 116 c 256
EndSplineSet
EndChar

StartChar: Delta
Encoding: 468 8710 468
Width: 647
VWidth: 0
Flags: HW
PickledData: "(dp1
S'org.pippin.gimp.org.kernagic'
p2
(dp3
S'lstem'
p4
I0
sS'rstem'
p5
I0
ssS'com.typemytype.robofont.layerData'
p6
(dp7
S'b'
(dp8
S'name'
p9
S'uni2206'
p10
sS'lib'
p11
(dp12
sS'unicodes'
p13
(tsS'width'
p14
I1278
sS'contours'
p15
(tsS'components'
p16
(tsS'anchors'
p17
(tsssS'org.robofab.postScriptHintData'
p18
(dp19
s."
LayerCount: 2
Fore
SplineSet
337 618 m 257
 536 63 l 257
 106 63 l 257
 305 618 l 257
 321 674 l 257
 337 618 l 257
294 740 m 257
 44 41 l 257
 44 0 l 257
 605 0 l 257
 605 41 l 257
 355 740 l 257
 294 740 l 257
EndSplineSet
EndChar

StartChar: v
Encoding: 86 118 479
Width: 513
VWidth: 0
GlyphClass: 2
Flags: HW
PickledData: "(dp1
S'org.pippin.gimp.org.kernagic'
p2
(dp3
S'lstem'
p4
I0
sS'rstem'
p5
I0
ssS'com.typemytype.robofont.guides'
p6
((dp7
S'y'
I552
sS'x'
I438
sS'magnetic'
p8
I5
sS'angle'
p9
I0
sS'isGlobal'
p10
I00
stp11
sS'com.typemytype.robofont.layerData'
p12
(dp13
sS'org.robofab.postScriptHintData'
p14
(dp15
s."
LayerCount: 2
Fore
SplineSet
226 0 m 257
 289 0 l 257
 484 528 l 257
 425 528 l 257
 370 371 315 214 257 60 c 257
 199 214 145 371 90 528 c 257
 31 528 l 257
 226 0 l 257
EndSplineSet
EndChar

StartChar: w
Encoding: 87 119 480
Width: 735
VWidth: 0
GlyphClass: 2
Flags: HW
PickledData: "(dp1
S'org.pippin.gimp.org.kernagic'
p2
(dp3
S'lstem'
p4
I0
sS'rstem'
p5
I0
ssS'com.typemytype.robofont.layerData'
p6
(dp7
sS'org.robofab.postScriptHintData'
p8
(dp9
s."
AnchorPoint: "top" 369 528 basechar 0
LayerCount: 2
Fore
SplineSet
369 473 m 257
 524 0 l 257
 573 0 l 257
 711 528 l 257
 659 528 l 257
 547 70 l 257
 399 520 l 257
 337 520 l 257
 191 71 l 257
 79 528 l 257
 24 528 l 257
 164 0 l 257
 214 0 l 257
 369 473 l 257
EndSplineSet
EndChar

StartChar: x
Encoding: 88 120 485
Width: 501
VWidth: 0
GlyphClass: 2
Flags: HW
PickledData: "(dp1
S'org.pippin.gimp.org.kernagic'
p2
(dp3
S'lstem'
p4
I0
sS'rstem'
p5
I0
ssS'com.fontlab.hintData'
p6
(dp7
S'hhints'
p8
((dp9
S'position'
p10
I0
sS'width'
p11
I22
s(dp12
g10
I1034
sg11
I21
stp13
ssS'com.typemytype.robofont.layerData'
p14
(dp15
sS'org.robofab.postScriptHintData'
p16
(dp17
s."
HStem: 0 11 505 10
LayerCount: 2
Fore
SplineSet
289 266 m 257
 477 528 l 257
 415 528 l 257
 260 307 l 257
 104 528 l 257
 39 528 l 257
 222 269 l 257
 24 0 l 257
 87 0 l 257
 251 227 l 257
 411 0 l 257
 476 0 l 257
 289 266 l 257
EndSplineSet
EndChar

StartChar: y
Encoding: 89 121 486
Width: 532
VWidth: 0
GlyphClass: 2
Flags: HW
PickledData: "(dp1
S'org.pippin.gimp.org.kernagic'
p2
(dp3
S'lstem'
p4
I0
sS'rstem'
p5
I0
ssS'com.typemytype.robofont.layerData'
p6
(dp7
sS'org.robofab.postScriptHintData'
p8
(dp9
s."
AnchorPoint: "top" 279 528 basechar 0
LayerCount: 2
Fore
SplineSet
505 528 m 257
 449 528 l 257
 280 89 l 257
 92 528 l 257
 31 528 l 257
 253 21 l 257
 174 -182 l 257
 223 -198 l 257
 505 528 l 257
EndSplineSet
EndChar

StartChar: yen
Encoding: 100 165 490
Width: 624
VWidth: 0
GlyphClass: 2
Flags: HW
PickledData: "(dp1
S'org.pippin.gimp.org.kernagic'
p2
(dp3
S'lstem'
p4
I0
sS'rstem'
p5
I0
ssS'com.typemytype.robofont.layerData'
p6
(dp7
S'b'
(dp8
S'name'
p9
S'yen'
p10
sS'lib'
p11
(dp12
sS'unicodes'
p13
(tsS'width'
p14
I1366
sS'contours'
p15
(tsS'components'
p16
(tsS'anchors'
p17
(tsssS'org.robofab.postScriptHintData'
p18
(dp19
s."
LayerCount: 2
Fore
SplineSet
126 283 m 257
 498 283 l 257
 498 322 l 257
 126 322 l 257
 126 283 l 257
126 146 m 257
 498 146 l 257
 498 185 l 257
 126 185 l 257
 126 146 l 257
EndSplineSet
Refer: 124 89 N 1 0 0 1 0 0 2
EndChar

StartChar: z
Encoding: 90 122 492
Width: 458
VWidth: 0
GlyphClass: 2
Flags: HW
PickledData: "(dp1
S'org.pippin.gimp.org.kernagic'
p2
(dp3
S'lstem'
p4
I0
sS'rstem'
p5
I0
ssS'com.typemytype.robofont.layerData'
p6
(dp7
sS'org.robofab.postScriptHintData'
p8
(dp9
s."
AnchorPoint: "top" 239 528 basechar 0
LayerCount: 2
Fore
SplineSet
66 528 m 257
 68 487 l 257
 346 487 l 257
 56 41 l 257
 56 0 l 257
 404 0 l 257
 402 42 l 257
 112 42 l 257
 401 487 l 257
 401 528 l 257
 66 528 l 257
EndSplineSet
EndChar

StartChar: zero
Encoding: 16 48 496
Width: 605
VWidth: 0
GlyphClass: 2
Flags: HW
PickledData: "(dp1
S'org.pippin.gimp.org.kernagic'
p2
(dp3
S'lstem'
p4
I0
sS'rstem'
p5
I0
ssS'com.typemytype.robofont.layerData'
p6
(dp7
S'b'
(dp8
S'name'
p9
S'zero'
p10
sS'lib'
p11
(dp12
sS'unicodes'
p13
(tsS'width'
p14
I1248
sS'contours'
p15
(tsS'components'
p16
(tsS'anchors'
p17
(tsssS'org.robofab.postScriptHintData'
p18
(dp19
s."
LayerCount: 2
Fore
SplineSet
305 -10 m 256
 463 -10 532 123 532 350 c 256
 532 591 452 721 305 721 c 256
 157 721 69 590 69 350 c 256
 69 123 146 -10 305 -10 c 256
305 41 m 256
 204 41 127 114 127 351 c 258
 127 355 l 258
 127 577 204 670 305 670 c 256
 405 670 475 596 475 353 c 256
 475 115 405 41 305 41 c 256
EndSplineSet
EndChar

StartChar: dotlessj
Encoding: 396 -1 497
Width: 256
VWidth: 0
GlyphClass: 2
Flags: HW
AnchorPoint: "top" 143 528 basechar 0
LayerCount: 2
Fore
SplineSet
112 528 m 257
 112 21 l 258
 112 -77 111 -105 37 -111 c 257
 15 -113 l 257
 17 -164 l 257
 44 -163 l 257
 127 -158 171 -124 171 -8 c 258
 171 528 l 257
 112 528 l 257
EndSplineSet
EndChar

StartChar: Sigma
Encoding: 414 931 498
Width: 604
VWidth: 0
GlyphClass: 2
Flags: HW
LayerCount: 2
Fore
SplineSet
62 741 m 257
 62 704 l 257
 337 299 l 257
 51 -112 l 257
 51 -147 l 257
 551 -147 l 257
 551 -86 l 257
 122 -86 l 257
 418 300 l 257
 132 685 l 257
 531 685 l 257
 531 741 l 257
 62 741 l 257
EndSplineSet
EndChar

StartChar: uni03BC
Encoding: 416 956 499
Width: 574
VWidth: 0
GlyphClass: 2
Flags: HW
LayerCount: 2
Fore
SplineSet
82 -161 m 1
 141 -161 l 1
 141 31 l 1
 172 4 214 -10 267 -10 c 0
 349 -10 397 16 433 69 c 1
 438 0 l 1
 489 0 l 1
 489 528 l 1
 430 528 l 1
 430 117 l 1
 405 79 361 35 270 35 c 0
 178 35 141 94 141 187 c 2
 141 528 l 1
 82 528 l 1
 82 -161 l 1
EndSplineSet
EndChar

StartChar: emptyset
Encoding: 467 8709 500
Width: 819
VWidth: 0
GlyphClass: 2
Flags: HW
LayerCount: 2
Fore
SplineSet
55 358 m 0
 55 562 224 719 406 719 c 0
 491 719 574 685 637 628 c 1
 723 725 l 1
 741 711 l 1
 653 612 l 1
 716 548 758 459 758 358 c 1
 758 154 588 -3 406 -3 c 0
 323 -3 243 29 180 84 c 1
 86 -21 l 1
 71 -7 l 1
 165 99 l 1
 99 164 55 255 55 358 c 0
194 100 m 1
 253 49 328 18 406 18 c 0
 577 18 737 167 737 358 c 0
 737 452 699 536 639 597 c 1
 194 100 l 1
179 114 m 1
 623 612 l 1
 563 666 486 698 406 698 c 0
 235 698 76 549 76 358 c 0
 76 261 117 175 179 114 c 1
EndSplineSet
EndChar

StartChar: uni03A9
Encoding: 415 937 501
Width: 782
VWidth: 0
GlyphClass: 2
Flags: HW
LayerCount: 2
Fore
SplineSet
60 0 m 1
 53 57 l 1
 229 57 l 1
 131 125 60 236 60 377 c 0
 60 577 204 707 398 707 c 0
 599 707 726 564 726 376 c 0
 726 232 640 123 554 57 c 1
 728 57 l 1
 722 0 l 1
 475 0 l 1
 474 54 l 1
 575 121 649 231 649 367 c 0
 649 516 564 644 396 644 c 0
 243 644 136 534 136 369 c 0
 136 234 206 121 310 54 c 1
 310 0 l 1
 60 0 l 1
EndSplineSet
EndChar

StartChar: uni0358
Encoding: 412 856 502
Width: 157
VWidth: 0
GlyphClass: 4
Flags: HW
LayerCount: 2
Fore
SplineSet
126 708 m 256
 126 736 112 751 83 751 c 256
 53 751 38 736 38 708 c 256
 38 680 53 665 83 665 c 256
 112 665 126 680 126 708 c 256
EndSplineSet
EndChar

StartChar: uni0259
Encoding: 397 601 503
Width: 547
VWidth: 0
Flags: HW
HStem: 493 46 5 45
LayerCount: 2
Fore
SplineSet
441 229 m 261
 430 115 365 36 261 36 c 260
 163 36 121 105 118 229 c 261
 441 229 l 261
72 268 m 261
 72 268 69 243 69 229 c 260
 69 80 140 -10 265 -10 c 263
 391 -10 502 89 502 267 c 260
 502 433 400 539 260 539 c 260
 187 539 129 519 82 492 c 261
 99 451 l 261
 105 451 l 261
 152 477 196 493 252 493 c 260
 355 493 437 425 443 268 c 261
 72 268 l 261
EndSplineSet
EndChar
